<?xml version="1.0" encoding="utf-8"?>
<!-- Generator: Adobe Illustrator 17.1.0, SVG Export Plug-In . SVG Version: 6.00 Build 0)  -->
<!DOCTYPE svg PUBLIC "-//W3C//DTD SVG 1.1//EN" "http://www.w3.org/Graphics/SVG/1.1/DTD/svg11.dtd">
<svg version="1.1" id="Layer_1" xmlns="http://www.w3.org/2000/svg" xmlns:xlink="http://www.w3.org/1999/xlink" x="0px" y="0px" viewBox="0 0 128 128 " enable-background="new 0 0 128 128" xml:space="preserve">
<g id="avatar-10"><path fill="#FFCC80" d="M41.6 123.8s0 .1-.1.1l.3-.4c-.1.2-.1.2-.2.3z"/><path fill="#FFFF8D" d="M0 0h128v128h-128z"/><path fill="#C2C2C2" d="M83.2 26.6c.1-.9.2-1.8.2-2.7 0-10.4-8.4-18.9-18.8-18.9s-18.8 8.4-18.8 18.8c0 1.4.2 2.7.4 4 5.4-4 12.2-6.4 19.4-6.4 6.5.1 12.5 2 17.6 5.2z"/><path fill="#848484" d="M41.4 58.4c9.6-1.9 10.3-10.7 11.7-13.2 4.2 5.4 12.4 16.6 36.8 13.5 1.5-2.5 4.4-6 7.4-5.6.3 0 .6.1 1 .2-.3-11.3-6.3-21.2-15.2-26.8-5.1-3.2-11.1-5.1-17.5-5.1-7.3 0-14 2.4-19.4 6.4-7.9 5.9-13.1 15.2-13.3 25.7.4-.1.9 1.7 1.4 1.7 2.8-.4 5.6 1 7.1 3.2z"/><path fill="#FF5722" d="M109.6 121.5c-1.2-2-2.2-3.6-2.9-4.8l-1.2-1.8-.2-.3c-.5-.8-1.1-1.6-1.8-2.3-3.1-3.3-6.9-5.1-10.8-5.3 0 0 .1 0 .1.1l-.2-.1c-3.4 3.7-7.8 6.6-12.7 8.5v12.5h33.4c-1.4-2.5-2.6-4.7-3.7-6.5zm-67.6-15.5l-.2.5c-2.9.8-5.6 2.5-7.8 5.1l-.2.2s-.5.6-1.4 1.6c-.9 1-2 2.4-3.5 4.2-2.1 2.6-4.7 6.1-7.5 10.4h28v-15.7c-2.8-1.7-5.3-3.8-7.4-6.3z"/><path fill="#E0F7FA" d="M67.7 117.7c-6.8-.2-13.1-2.1-18.3-5.4v15.7h30.5v-12.6c-3.8 1.4-7.9 2.2-12.2 2.3z"/><path fill="#FFE0B2" d="M42 106c2.1 2.4 4.6 4.5 7.4 6.3 5.2 3.3 11.5 5.3 18.3 5.4 4.3-.1 8.4-.9 12.1-2.3 5-1.9 9.3-4.8 12.7-8.5l.2.1s-.1 0-.1-.1c-15.7-12.3-12-21.7-7.8-26.6 1.3-1.1 2.6-2.3 4.1-3.6l12.2-10.3c1.4-1.2 2.4-2.8 2.7-4.8.5-3.8-1.9-7.3-5.4-8.2-.3-.1-.6-.2-1-.2-3.1-.4-5.9 1.1-7.4 3.6-24.4 3.1-32.7-8.1-36.8-13.5-1.5 2.4-2.1 11.3-11.7 13.2-1.6-2.3-4.3-3.6-7.2-3.2l-1.4.3c-3.4 1.1-5.5 4.5-5 8.1.3 1.9 1.3 3.6 2.6 4.7l10.2 8.7c5.8 6 14.1 18.3 1.4 30.7-.1.1-.1.2-.1.2zm37.6-45.3c.8 0 1.5.7 1.5 1.5s-.7 1.5-1.5 1.5-1.5-.7-1.5-1.5c-.1-.9.6-1.5 1.5-1.5zm-24 0c.8 0 1.5.7 1.5 1.5s-.7 1.5-1.5 1.5-1.5-.7-1.5-1.5c-.1-.9.6-1.5 1.5-1.5z"/><circle fill="#444" cx="79.6" cy="62.2" r="2"/><circle fill="#444" cx="55.6" cy="62.2" r="2"/></g>
</svg>
