<?xml version="1.0" encoding="utf-8"?>
<!-- Generator: Adobe Illustrator 17.1.0, SVG Export Plug-In . SVG Version: 6.00 Build 0)  -->
<!DOCTYPE svg PUBLIC "-//W3C//DTD SVG 1.1//EN" "http://www.w3.org/Graphics/SVG/1.1/DTD/svg11.dtd">
<svg version="1.1" id="Layer_1" xmlns="http://www.w3.org/2000/svg" xmlns:xlink="http://www.w3.org/1999/xlink" x="0px" y="0px" viewBox="0 0 128 128 " enable-background="new 315 0 128 128" xml:space="preserve">
<g id="avatar-3"><path fill="#80D8FF" d="M0 0h128v128h-128z"/><path fill="#5D4037" d="M53.7 68.3c.9-.1 1.7-.3 2-.9.1-.2.2-.4.2-.6.2-1-.2-2-.5-3-1.2-3.2-2-6.4-2.2-9.8-.3-3.9.4-7.8 1-11.6l12.7-8.1c.8-.5 1.8-1.5 2.7-1.7.9-.3 2.4.6 3.3.8 1.3.4 2.6.6 4 .9 5.4.9 10.9.7 16.2-.6 1.3-.3 2.7-1.1 4-1.3-.3-2.1-1.5-4.3-2.5-6.1-1-1.9-2.2-3.7-3.6-5.3-2.7-3.2-6-5.8-9.8-7.5-3.3-1.5-6.8-2.4-10.4-2.5 0 0-50.8-8.1-42.4 56.4l12.8.5 8.7.3c.9-.1 2.5.2 3.8.1z"/><path d="M59.5 25.7l-.3-.4c0 .2.1.3.3.4zM58.5 24.5c-.2-.2-.3-.4-.4-.6.1.2.2.4.4.6zM58.9 25.1l-.3-.4.3.4zM60 26.3l-.4-.4c.2.1.3.3.4.4zM46.3 56.2zM46.8 56.6l.3.3-.3-.3zM46.6 56.4l.2.2-.2-.2zM46.4 56.2l.1.1-.1-.1zM60.7 26.9l-.4-.4c.1.1.2.3.4.4zM69.3 31.6l-1-.3c.3 0 .6.2 1 .3zM70.6 31.9c-.4-.1-.8-.2-1.1-.3.3.1.7.2 1.1.3zM47.2 56.9l.4.4c-.2-.1-.3-.3-.4-.4zM74.2 32.7l-.9-.2c.3.1.6.2.9.2zM61.4 27.5l-.5-.4c.1.1.3.2.5.4zM68.1 31.2c-.3-.1-.6-.2-.9-.4.2.1.6.2.9.4zM62.2 28.1l-.6-.5.6.5zM65.9 30.3c-1.4-.6-2.6-1.3-3.6-2.1 1 .7 2.2 1.4 3.6 2.1zM67 30.7l-.9-.4c.2.2.5.3.9.4zM87.1 33.4h-.8.8zM83.9 33.4h1.4-.8-.6zM80 33.4l1.9.1c-.6 0-1.1 0-1.7-.1h-.2zM82 33.4h1.6-.8-.8zM88.1 33.3c.3 0 .7 0 1-.1h-.2c-.2.1-.5.1-.8.1zM94.3 32.7l-.7.1c1.2-.1 2.4-.3 3.6-.5l-2.2.3c-.2.1-.5.1-.7.1zM90.9 33.1c-.3 0-.6 0-.8.1.9-.1 1.9-.2 2.9-.3l-.8.1c-.5 0-.9 0-1.3.1zM51.1 61.9c.2.3.4.6.5 1-.2-.4-.3-.7-.5-1zM47.6 57.3c.8.8 1.8 1.9 2.8 3.5-1-1.5-2-2.7-2.8-3.5zM50.5 60.9l.6.9c-.3-.3-.5-.6-.6-.9zM51.7 63l.6 1.1c-.3-.4-.4-.8-.6-1.1zM78.2 33.2l-.9-.1c-.2 0-.3 0-.5-.1l-.9-.1h-.2c1.3.2 2.6.3 4 .4-.3 0-.6 0-.9-.1-.2.1-.4.1-.6 0zM74.4 32.8l1.1.2-.9-.1c-.1-.1-.2-.1-.2-.1zM70.7 32c.7.2 1.5.4 2.3.5l-.9-.2-1.4-.3zM52.2 64.1c.6 1.2 1.1 2.6 1.5 4.1-.4-1.5-.9-2.9-1.5-4.1z" fill="none"/><path fill="#E65100" d="M101.3 128h.3c-2.4-9.5-4.8-19.4-6.8-28.7-7.6 2.7-39.3.6-45.1-5.1-2.5 4.9-6 10.3-10.8 16.2h58.1l4.3 17.6z"/><path fill="#2A56C6" d="M97.2 92.5v-.2.2z"/><path fill="#00838F" d="M39.2 107.1l.3-.4-.3.3v.1z"/><path fill="#EE8100" d="M101.6 128c-1.5-5.8-3-11.8-4.3-17.7h-58.4c-.9 1.1-2.1 2.2-3.1 3.3-.2.2-.3.4-.5.5-4 4.6-7.5 9.2-10.4 13.8h76.7z"/><path fill="#FFE0B2" d="M72.4 103.8c5.9-.2 14.8-1.8 22.4-4.5-.3-1.4-.6-2.7-.8-4.1-1.9-9.4-3.2-18.1-3.4-25-.5-19.6 6.6-20.2 6.6-20.2h2.1c0-4.2-.5-8.8-.9-12.3-.2-1.9-.6-3.6-1.2-5.3l-3.6.5-.6.1-2.9.3c-.3 0-.6 0-.9.1-.3 0-.7 0-1 .1-.3 0-.7 0-1 .1h-5.1c-.7 0-1.3 0-1.9-.1h-.3c-1.4-.1-2.8-.2-4-.4h-.2l-1.1-.2h-.2l-.9-.2c-.1 0-.2 0-.3-.1l-2.3-.5h-.1c-.4-.1-.8-.2-1.1-.3-.1 0-.1 0-.2-.1l-1-.3c-.1 0-.1 0-.2-.1-.3-.1-.6-.2-.9-.4-.1 0-.1 0-.2-.1l-.9-.4s-.1 0-.1-.1c-1.4-.6-2.6-1.3-3.6-2.1l-.1-.1-.6-.5-.2-.2-.5-.4-.2-.2-.4-.4-.2-.2-.4-.4-.2-.2-.3-.4-.2-.2-.3-.4-.1-.2c-.2-.2-.3-.4-.4-.6l-8 24.9-11.2-14.1c-4.1.6-6.9 4.7-6.3 9.1.3 2 1.2 3.8 2.6 5 .3.1 1.6.7 3.4 1.7.8.4 1.6 1 2.5 1.6 1.5 1.1 3.2 2.5 4.9 4.1h.1l.1.1.2.2.1.1.3.3.1.1.4.4c.8.8 1.8 1.9 2.8 3.5v.1l.6.9s0 .1.1.1c.2.3.4.6.5 1 0 0 0 .1.1.1l.6 1.1c.6 1.2 1.1 2.6 1.5 4.1 1.7 6.2 1.6 14.8-4 25.9 5.6 5.8 13.6 9.4 22.5 9.7z"/><circle fill="#444" cx="84.2" cy="44.1" r="2"/></g>
</svg>
