<?xml version="1.0" encoding="utf-8"?>
<!-- Generator: Adobe Illustrator 17.1.0, SVG Export Plug-In . SVG Version: 6.00 Build 0)  -->
<!DOCTYPE svg PUBLIC "-//W3C//DTD SVG 1.1//EN" "http://www.w3.org/Graphics/SVG/1.1/DTD/svg11.dtd">
<svg version="1.1" id="Layer_1" xmlns="http://www.w3.org/2000/svg" xmlns:xlink="http://www.w3.org/1999/xlink" x="0px" y="0px"
	 viewBox="0 0 256 256 " enable-background="new 315 0 512 512" xml:space="preserve">
<g id="entertainment"><path fill="#00838F" d="M214.8 138.9h-28.1v26h28.1l-5.7-13z"/><circle fill="#7E57C2" cx="142.5" cy="151.9" r="35.9"/><path fill="#7E57C2" d="M106.6 105.5h71.7v46.4h-71.7z"/><path fill="#673AB7" d="M160.1 166.5c0-9.7-7.9-17.6-17.6-17.6-9.7 0-17.6 7.9-17.6 17.6h35.2zM165.8 134.7c0-4.9-4-8.8-8.8-8.8s-8.8 4-8.8 8.8h17.6z"/><path fill="#fff" d="M136.8 134.7c0-4.9-4-8.8-8.8-8.8-4.9 0-8.8 4-8.8 8.8h17.6z"/><path fill="#00ACC1" d="M178.3 125.9h16.7v26h-16.7z"/><path fill="#673AB7" d="M34.3 103h28.1v26h-28.1l5.7-13z"/><path fill="#7E57C2" d="M54.1 90h16.7v26h-16.7z"/><circle fill="#00ACC1" cx="106.6" cy="116" r="35.9"/><path fill="#00ACC1" d="M70.8 69.6h71.7v46.4h-71.7z"/><path fill="#00838F" d="M89 117.9c0 9.7 7.9 17.6 17.6 17.6s17.6-7.9 17.6-17.6h-35.2zM130 98.9c0-4.9-4-8.8-8.8-8.8-4.9 0-8.8 4-8.8 8.8h17.6zM101 98.9c0-4.9-4-8.8-8.8-8.8-4.9 0-8.8 4-8.8 8.8h17.6z"/><path fill="#B39DDB" d="M54.1 116l8.3 13v-13z"/><path fill="#26C6DA" d="M195.1 151.9l-8.4 13v-13z"/><path fill="none" d="M0 0h256v256h-256z"/></g>
</svg>
