<?xml version="1.0" encoding="utf-8"?>
<!-- Generator: Adobe Illustrator 17.1.0, SVG Export Plug-In . SVG Version: 6.00 Build 0)  -->
<!DOCTYPE svg PUBLIC "-//W3C//DTD SVG 1.1//EN" "http://www.w3.org/Graphics/SVG/1.1/DTD/svg11.dtd">
<svg version="1.1" id="Layer_1" xmlns="http://www.w3.org/2000/svg" xmlns:xlink="http://www.w3.org/1999/xlink" x="0px" y="0px"
	 viewBox="0 0 256 256 " enable-background="new 315 0 512 512" xml:space="preserve">
<g id="tvmovies"><path fill="none" d="M0 0h256v256h-256z"/><ellipse opacity=".1" fill="#444" enable-background="new" cx="186.6" cy="180.3" rx="18.3" ry="3.8"/><ellipse opacity=".1" fill="#444" enable-background="new" cx="103.6" cy="179.9" rx="46.5" ry="4.5"/><path fill="#FACB43" d="M149.1 85.8c0-6.7-5.4-12.1-12.1-12.1-.8 0-1.5.1-2.2.2-7.4-9.1-18.6-14.9-31.2-14.9-10.6 0-20.3 4.2-27.5 10.9-1.1-.3-2.3-.5-3.5-.5-6.7 0-12.1 5.4-12.1 12.1 0 3.5 1.5 6.7 4 8.9-.6 2.8-1 5.7-1 8.7 0 22.1 18 40.1 40.1 40.1s40.1-18 40.1-40.1c0-1.1-.1-2.1-.1-3.1 3.3-2.2 5.5-5.9 5.5-10.2z"/><path fill="#fff" d="M157.5 79h-107.9c-2.1 0-3.8 1.7-3.8 3.8 0 2.1 1.7 3.8 3.8 3.8h5.6l10.4 94.1h76l10.5-94.1h5.4c2.1 0 3.8-1.7 3.8-3.8 0-2.1-1.7-3.8-3.8-3.8z"/><path fill="#DB4437" d="M97.1 86.6v94h13v-94zM126.9 86.6l-10.2 94.1h13.1l10.1-94.1zM67.2 86.5l10.2 94.2h13.1l-10.2-94.2z"/><path fill="#666" d="M190.3 113.7l-5.4-.6 1.1-10c.5-4.9 4.6-10.1 9.3-11.8l13.1-4.7 1.9 5.1-13.1 4.7c-2.7 1-5.4 4.3-5.7 7.2l-1.2 10.1z"/><path fill="#fff" d="M164.6 112.4h44l-7.6 68.3h-28.9z"/><path fill="#4DBFD9" d="M203.2 161h-33.3l-2.9-27h39.2z"/><path opacity=".1" fill="#212121" enable-background="new" d="M208.1 116.9l-40.6 22.3-2.9-22.3z"/><ellipse fill="#FACB43" cx="54.8" cy="183.3" rx="4.8" ry="4.7"/><ellipse fill="#FACB43" cx="52" cy="186.5" rx="3.4" ry="3.4"/><ellipse fill="#FACB43" cx="57.9" cy="186.5" rx="3.4" ry="3.4"/><ellipse transform="matrix(-.555 .832 -.832 -.555 336.922 207.511)" fill="#FACB43" cx="112.9" cy="193.9" rx="4.8" ry="4.7"/><ellipse fill="#FACB43" cx="111.8" cy="189.8" rx="3.4" ry="3.4"/><ellipse fill="#FACB43" cx="108.5" cy="194.8" rx="3.4" ry="3.4"/><ellipse transform="matrix(.973 -.232 .232 .973 -37.889 38.871)" fill="#FACB43" cx="146.1" cy="180.3" rx="4.8" ry="4.7"/><ellipse fill="#FACB43" cx="144.1" cy="184.1" rx="3.4" ry="3.4"/><ellipse fill="#FACB43" cx="149.4" cy="181.1" rx="3.4" ry="3.4"/><path opacity=".1" fill="#212121" enable-background="new" d="M151.5 91h-95.9l-.4-4.4h96.8zM45.8 82.9c0 2.1 1.7 3.8 3.8 3.8h5.6l4.9 43.6 91.4-39.2.8-4.4h5.2c2.1 0 3.8-1.7 3.8-3.8h-115.5z"/></g>
</svg>
