<?xml version="1.0" encoding="utf-8"?>
<!-- Generator: Adobe Illustrator 17.1.0, SVG Export Plug-In . SVG Version: 6.00 Build 0)  -->
<!DOCTYPE svg PUBLIC "-//W3C//DTD SVG 1.1//EN" "http://www.w3.org/Graphics/SVG/1.1/DTD/svg11.dtd">
<svg version="1.1" id="Layer_1" xmlns="http://www.w3.org/2000/svg" xmlns:xlink="http://www.w3.org/1999/xlink" x="0px" y="0px"
	 viewBox="0 0 256 256 " enable-background="new 0 0 256 256" xml:space="preserve">
<g id="science"><path opacity=".1" fill="#444" enable-background="new" d="M170.5 189c-4.9 0-9.5.3-13.4.7 5-2 7.9-4.2 7.9-6.7 0-7.1-24.3-12.9-54.3-12.9s-54.3 5.8-54.3 12.9c0 7.1 24.3 12.9 54.3 12.9 12.5 0 24-1 33.2-2.7-.4.3-.6.7-.6 1.1 0 2.9 12.2 5.3 27.2 5.3s27.2-2.4 27.2-5.3-12.2-5.3-27.2-5.3z"/><path fill="#F5F5F5" d="M123.1 113.4v-48.5h-27.4v48.5h-.3l-35 57.1c-4.8 11.1 4.5 15.2 12.9 15.2h72c8.4 0 19.5-4.4 12.9-15.2l-35.1-57.1z"/><path fill="#7CB342" d="M140.3 141.4h-62.1l-17.9 29.1c-4.8 11.1 4.5 15.2 12.9 15.2h72c8.4 0 19.5-4.4 12.9-15.2l-17.8-29.1z"/><path fill="#558B2F" d="M140.3 141.4h-29.7v44.2h34.6c8.4 0 19.5-4.4 12.9-15.2l-17.8-29z"/><circle opacity=".2" fill="#fff" enable-background="new" cx="119" cy="175.9" r="4.1"/><circle opacity=".2" fill="#fff" enable-background="new" cx="120.8" cy="150.9" r="3.5"/><circle opacity=".2" fill="#fff" enable-background="new" cx="141.3" cy="175.9" r="4.3"/><circle opacity=".2" fill="#fff" enable-background="new" cx="126.2" cy="166.1" r="2.5"/><path opacity=".2" fill="#fff" enable-background="new" d="M140.5 152.6c0 1.5-1.2 2.8-2.8 2.8-1.5 0-2.8-1.2-2.8-2.8 0-1.5 1.2-2.8 2.8-2.8s2.8 1.3 2.8 2.8zM97.2 150.8c0-2.7 2.2-4.8 4.8-4.8 2.7 0 4.8 2.2 4.8 4.8 0 2.7-2.2 4.8-4.8 4.8-2.7.1-4.8-2.1-4.8-4.8z"/><circle opacity=".2" fill="#fff" enable-background="new" cx="102" cy="175.9" r="3.5"/><circle opacity=".2" fill="#fff" enable-background="new" cx="79.7" cy="157.5" r="4.3"/><circle opacity=".2" fill="#fff" enable-background="new" cx="91.6" cy="164.7" r="2.5"/><path opacity=".2" fill="#fff" enable-background="new" d="M76.9 175.9c0-1.6 1.3-2.9 2.9-2.9s2.9 1.3 2.9 2.9c0 1.6-1.3 2.9-2.9 2.9-1.7-.1-2.9-1.4-2.9-2.9z"/><path fill="#F5F5F5" d="M151.2 88.8v88.4c0 12.7 8.6 19.7 19.3 19.7 10.7 0 19.3-7 19.3-19.7v-88.4h-38.6z"/><path fill="#E0E0E0" d="M170.4 196.9c10.7 0 19.4-7 19.4-19.7v-88.4h-19.4v108.1z"/><path fill="#AFB42B" d="M189.8 123.7v53.5c0 12.7-8.6 19.7-19.3 19.7s-19.3-7-19.3-19.7v-53.5h38.6z"/><path opacity=".2" fill="#424242" enable-background="new" d="M151.3 89.5h38.5v3.2h-38.5z"/><path fill="#E1E1E1" d="M149.3 89.5h42.4c2 0 3.6-1.9 3.6-4.2 0-2.4-1.6-4.3-3.6-4.3h-42.4c-2 0-3.6 1.9-3.6 4.3 0 2.3 1.6 4.2 3.6 4.2z"/><path fill="#9E9D24" d="M170.4 196.9c10.7 0 19.4-7 19.4-19.7v-53.5h-19.4v73.2z"/><path fill="#646464" d="M179.5 135.1h10.2v2.6h-10.2zM179.5 152.1h10.2v2.5h-10.2zM179.5 169.1h10.2v2.5h-10.2zM179.5 101.1h10.2v2.6h-10.2zM179.5 118.1h10.2v2.6h-10.2z"/><path opacity=".2" fill="#424242" enable-background="new" d="M95.6 64.9h27.5v3.2h-27.5z"/><path fill="#E1E1E1" d="M93.6 64.9h31.4c2 0 3.6-1.9 3.6-4.2 0-2.4-1.6-4.3-3.6-4.3h-31.4c-2 0-3.6 1.9-3.6 4.3 0 2.3 1.6 4.2 3.6 4.2z"/><path fill="none" d="M0 0h256v256h-256z"/></g>
</svg>
