<?xml version="1.0" encoding="utf-8"?>
<!-- Generator: Adobe Illustrator 17.1.0, SVG Export Plug-In . SVG Version: 6.00 Build 0)  -->
<!DOCTYPE svg PUBLIC "-//W3C//DTD SVG 1.1//EN" "http://www.w3.org/Graphics/SVG/1.1/DTD/svg11.dtd">
<svg version="1.1" id="Layer_1" xmlns="http://www.w3.org/2000/svg" xmlns:xlink="http://www.w3.org/1999/xlink" x="0px" y="0px"
	 viewBox="0 0 256 256 " enable-background="new 315 0 512 512" xml:space="preserve">
<g id="profile"><path fill="#FF80AB" d="M156.1 201.4c-.6-.2-1.2-.3-1.9-.5.6.2 1.3.4 1.9.5zM158.3 201.9c.8.5 1.4 1.4 1.4 2.4 0-1.1-.6-1.9-1.4-2.4zM152.1 200.2l.3-1.3c.2-.8 2.5-13.6 2.6-17.9.1-4.6-.4-7.6-1.2-9.4h-5.6l1.4-5.7v-.3l.2-1.3.1-.1c.1-1.2.2-2.4.3-3.4.1-1.1.4-2.2.7-3.3h.3-.2c2.6-8.6 10.6-14.3 19.2-13 2 .3 3.9.9 5.6 1.9 1.4-4.2 5.4-7.2 10.1-7.2 5.9 0 10.7 4.8 10.6 10.7 0 4.8-3.1 8.8-7.5 10.2 0 0-.1 0-.1-.1l.2.2c1.1 1 1.7 2.7 1.5 4.4-.2 1.3-.8 2.3-1.6 3.1-.1.1-1 .4-2.1 1.1-.4.3-.9.6-1.5 1-1 .6-2 1.5-3 2.5-4.1 4.2-7.5 11.5-1.5 22.8v.1c.1-.1.1-.2.1-.2 1.1 2.1 2.6 4.4 4.4 6.8l-.1.1c.2.2.4.4.5.6l.7.9c.1 0 .1.1.2.2.4.5.7.9 1.1 1.3l.4.5c.1.1.3.3.4.5l.7.9c12.9-6.5 21.7-19.9 21.7-35.3 0-21.8-17.7-39.5-39.5-39.5s-39.5 17.7-39.5 39.5c0 14.3 7.6 26.9 19 33.8.4-1.7.8-3.4 1.1-5.1zm33.8 2.3l.7.9-.7-.9zm.7.9l.2.2c-.1 0-.1-.1-.2-.2zM171.7 207c1.5 0 2.8-1.2 2.7-2.7 0 1.5-1.2 2.7-2.7 2.7zM171.7 201.6c-1.5 0-2.7 1.2-2.7 2.7 0-1.5 1.2-2.7 2.7-2.7zM171.7 201.6c1.5 0 2.7 1.2 2.7 2.7 0-1.5-1.2-2.7-2.7-2.7zM169 204.3c0 1.5 1.2 2.7 2.7 2.7-1.5 0-2.7-1.2-2.7-2.7z"/><path fill="#5D4037" d="M159.3 158.1c.8-.4 1.8-.6 2.8-.6.7 0 1.4.1 2 .3l.2.1c6-.8 9.1-3.3 10.8-5.6.2.2.4.6.7 1 1.3 1.9 4.1 4.8 9.1 5.7.6-.1 1.2-.2 1.8 0 .8.2 1.6.5 2.2 1 0 0 .1 0 .1.1 4.4-1.4 7.5-5.4 7.5-10.2.1-5.9-4.7-10.7-10.6-10.7-4.7 0-8.7 3-10.1 7.2-1.7-1-3.6-1.6-5.6-1.9-8.6-1.3-16.6 4.4-19.2 13h.2c3 .5 5.6.6 7.9.7l.2-.1z"/><path fill="#FFCC80" d="M154.5 158.5l4.4-.2.2-.1c-2.3 0-4.9-.2-7.9-.7h-.3c-.3 1.1-.6 2.2-.7 3.3-.2 1.1-.3 2.2-.3 3.4l1.2-1.3 3.4-4.4zM182.4 172.3c1-1 2-1.9 3-2.5.6-.4 1.1-.7 1.5-1 1.1-.7 2-1 2.1-1.1.8-.8 1.4-1.8 1.6-3.1.2-1.7-.4-3.4-1.5-4.4l-.2-.2c-.6-.5-1.4-.9-2.2-1-.6-.2-1.2-.1-1.8 0-5-.9-7.8-3.8-9.1-5.7-.3-.4-.5-.8-.7-1-1.7 2.3-4.8 4.7-10.8 5.6.1 0 .3.1.4.2l2.8-.1 1.5 4.5c.1.1.1.3.2.5.9 2.8 1.9 5.7 1.8 5.8-.1.1-7.9 5.6-7.9 5.6l-7.8-3.3-4.1-2.3-1.6-2.4v-.3l-1.4 5.7h5.6c.8 1.8 1.3 4.8 1.2 9.4-.1 4.3-2.4 17.1-2.6 17.9l-.3 1.3h.1c.7.3 1.4.5 2 .7.6.2 1.2.4 1.9.5l.7.2h-.1c.6.1 1.1.2 1.5.3 2.9.6 5.6.7 7.9.5 9.2-.7 13.8-6.3 14.7-7.2v-.1c-5.9-11.5-2.5-18.8 1.6-23zM186.8 203.6l-.2-.2c.1.1.1.2.2.2z"/><path fill="#FFEE58" d="M188.6 205.9c-.5.7-1.2 1.1-2.1 1.1-1.5 0-2.7-1.2-2.7-2.7 0-1.1.6-2.1 1.4-2.5 0 0 0 .1.1.1l.1-.1c-1.8-2.4-3.3-4.7-4.4-6.8 0 0-.1.1-.1.2-.8 1-5.4 6.5-14.7 7.2-2.3.2-5 .1-7.9-.5.8.5 1.4 1.3 1.4 2.4 0 1.5-1.2 2.7-2.7 2.7s-2.7-1.2-2.7-2.7 1.1-2.6 2.4-2.7h.1c-.2 0-.5-.1-.7-.2-.6-.1-1.2-.3-1.9-.5s-1.3-.4-2-.7c-.4 1.7-.8 3.4-1.1 5.1 6 3.6 13 5.7 20.5 5.7 6.4 0 12.4-1.5 17.8-4.2-.4-.4-.6-.7-.8-.9zm-16.9 1.1c-1.5 0-2.7-1.2-2.7-2.7s1.2-2.7 2.7-2.7 2.7 1.2 2.7 2.7c.1 1.5-1.2 2.7-2.7 2.7z"/><path d="M186.6 203.4l-.7-.9" fill="none"/><path fill="#F9A825" d="M158.3 201.9c-.5-.1-1-.2-1.6-.3-1.3.1-2.4 1.2-2.4 2.7s1.2 2.7 2.7 2.7 2.7-1.2 2.7-2.7c0-1-.6-1.9-1.4-2.4z"/><circle fill="#F9A825" cx="171.7" cy="204.3" r="2.7"/><path fill="#F9A825" d="M187.8 204.9c-.4-.4-.7-.8-1.1-1.3-.1-.1-.1-.2-.2-.2l-.7-.9c-.2-.2-.4-.4-.5-.6 0 0 0-.1-.1-.1-.8.4-1.4 1.4-1.4 2.5 0 1.5 1.2 2.7 2.7 2.7.9 0 1.6-.4 2.1-1.1-.1-.2-.3-.4-.4-.5l-.4-.5z"/><path fill="#FFCC80" d="M162.1 158.8c-3.5 0-6.3 2.8-6.2 6.2 0 3.4 2.8 6.2 6.2 6.2 3.4 0 6.2-2.8 6.2-6.2 0-3.4-2.8-6.2-6.2-6.2zm-2.1 7.2c-.7 0-1.2-.5-1.2-1.2s.5-1.2 1.2-1.2 1.2.5 1.2 1.2-.5 1.2-1.2 1.2zM169 162.4l-1.5-4.5-2.8.1c2 .8 3.6 2.4 4.3 4.4zM151.2 168.6l4.1 2.3 7.8 3.3s7.8-5.5 7.9-5.6c.1-.1-.9-3-1.8-5.8.2.7.3 1.4.3 2.2 0 4.2-3.4 7.5-7.5 7.5-3.9 0-7.1-3-7.4-6.8h-4.9l.2-.7v-.6h4.8c.2-2.7 1.9-5 4.2-6.1l-4.4.2-3.4 4.4-1.2 1.3-.1.1-.2 1.3v.6l1.6 2.4z"/><path fill="#DB4437" d="M162.1 157.5c-1 0-2 .2-2.8.6l-.2.1-.2.1c-2.3 1.1-4 3.4-4.2 6.1h-4.8v.6l-.2.7h4.9c.3 3.8 3.5 6.8 7.4 6.8 4.1 0 7.5-3.3 7.5-7.5 0-.8-.1-1.5-.3-2.2 0-.2-.1-.3-.2-.5-.8-2-2.3-3.6-4.3-4.3l-.4-.2-.2-.1c-.6-.1-1.3-.2-2-.2zm0 13.7c-3.4 0-6.2-2.8-6.2-6.2-.1-3.4 2.7-6.2 6.2-6.2 3.4 0 6.2 2.8 6.2 6.2 0 3.4-2.8 6.2-6.2 6.2z"/><circle fill="#444" cx="160" cy="164.8" r="1.5"/><path fill="#FF8A80" d="M82.5 122c1.3 0 2.7-.1 4-.2h-8c1.3.1 2.7.2 4 .2zM98.7 102.2zM55.2 111c.6-.8 1.1-1.5 1.6-2.1 1-1.2 1.7-2.1 2.3-2.8.6-.7.9-1.1.9-1.1l.1-.1c1.5-1.6 3.3-2.7 5.2-3.3l.1-.3.1.1c.2-.3.4-.5.6-.7 2.9-3.1 4.5-7.2 3.4-11.4-.4-1.7-1.2-3.3-2.1-4.7-.8-1.2-1.8-2.6-2.9-3.5l-6.8-5.8c-.9-.7-1.5-1.8-1.7-3.1-.4-2.7 1.5-5.2 4.2-5.6.7-.1 1.4-.1 2 .1 0-.1 0-.3.1-.4l.2-.1.1-.1-.4.1c1.9-7.2 8-13 15.9-14.1 1.1-.2 2.1-.2 3.2-.2h11.6s6.1.7 6.9-2.7c0 0 1.9 6.7-8.7 5.8 3.6 2.3 6.4 5.8 7.8 10.1h-.1c.4.5.5 1.2.7 1.9.8-.4 1.7-.5 2.6-.4 2.7.4 4.6 2.9 4.2 5.6-.2 1.3-.9 2.4-1.8 3.2l-8.1 6.8c-1 .9-1.9 1.7-2.7 2.4-2.8 3.2-5.3 9.4 5.1 17.5l.1-.1.1.1h-.1c2.5.2 5 1.3 7 3.5l1.2 1.5.1.2s.3.4.8 1.2c.4.7 1 1.6 1.8 2.5 7.5-7.2 12.2-17.3 12.2-28.5 0-21.8-17.7-39.5-39.5-39.5s-39.5 17.7-39.5 39.5c0 11.2 4.7 21.3 12.2 28.5z"/><path fill="#FFE0B2" d="M82.4 109.1c6.5-.1 12.3-2.7 16.3-6.9l.1-.1c-10.4-8.2-7.9-14.3-5.1-17.5.8-.7 1.7-1.5 2.7-2.4l8.1-6.8c.9-.8 1.6-1.9 1.8-3.2.4-2.7-1.5-5.2-4.2-5.6-.9-.1-1.8 0-2.6.4-.2-.7-.3-1.4-.7-1.9-16.5 2.3-23.3-1.6-26.1-5.2-1 1.6-3.8 5-10.1 6.2l-.1.1-.2.1c-.1.1-.1.3-.1.4-.6-.2-1.3-.2-2-.1-2.7.4-4.6 2.9-4.2 5.6.2 1.3.8 2.4 1.7 3.1l6.8 5.8c1.1.9 2.1 2.3 2.9 3.5.9 1.4 1.7 3 2.1 4.7 1.1 4.2-.5 8.3-3.4 11.4-.2.2-.4.4-.6.7 4 4.5 10 7.5 16.9 7.7zm7.7-38c.7 0 1.2.5 1.2 1.2s-.5 1.2-1.2 1.2-1.2-.5-1.2-1.2.5-1.2 1.2-1.2zm-15.8.1c.7 0 1.2.5 1.2 1.2s-.5 1.2-1.2 1.2-1.2-.5-1.2-1.2.5-1.2 1.2-1.2z"/><path fill="#E0F7FA" d="M107.2 107.3l-.1-.2-1.2-1.5c-2-2.2-4.5-3.3-7-3.5h.1l-.1-.1-.1.1-.1.1c-4 4.2-9.8 6.8-16.3 6.9-6.9-.2-12.9-3.2-16.9-7.7l-.1-.1-.1.3c-1.9.6-3.7 1.7-5.2 3.3l-.1.1s-.3.4-.9 1.1c-.6.7-1.3 1.6-2.3 2.8-.5.6-1 1.3-1.6 2.1 6.2 5.9 14.3 9.9 23.3 10.8h8c9-.9 17.1-4.9 23.3-10.8-.9-.9-1.4-1.8-1.8-2.5-.5-.8-.8-1.2-.8-1.2z"/><circle fill="#444" cx="90.1" cy="72.3" r="1.5"/><circle fill="#444" cx="74.3" cy="72.4" r="1.5"/><path fill="#444" d="M72.7 59.9c2.8 3.6 9.6 7.5 26.1 5.2h.1c-1.4-4.3-4.2-7.8-7.8-10.1 10.6.9 8.7-5.8 8.7-5.8-.8 3.4-6.9 2.7-6.9 2.7h-11.6c-1.1 0-2.1 0-3.2.2-7.9 1.1-14 6.9-15.9 14.1l.4-.1c6.3-1.2 9.1-4.6 10.1-6.2z"/><path fill="#80D8FF" d="M171.5 43c-21.8 0-39.5 17.7-39.5 39.5 0 14.5 7.8 27.1 19.4 34l2.4-2.9.3-.3 1.9-2.1c2.9-3.6 5-6.8 6.5-9.7-.1-.1-.2-.1-.2-.2 3.5-6.9 3.5-12.2 2.5-16v-.1c-.7 0-1.5-.1-2-.3l-5.4-.2-7.9-.3c-5.2-39.8 26.2-34.8 26.2-34.8 2.2 0 4.4.6 6.4 1.5 2.4 1 4.4 2.6 6.1 4.6.8 1 1.6 2.1 2.2 3.3.7 1.2 1.4 2.5 1.6 3.8-.4 0-.8.2-1.2.3l1.1-.1c.3 1.1.6 2.2.7 3.3.3 2.2.6 5 .6 7.6h-1.3s-4.3.4-4 12.5c.1 4.2 1 9.6 2.1 15.4l.5 2.5c-.4.1-.8.3-1.3.4.5-.1.9-.2 1.3-.3.6 2.8 1.3 5.7 2 8.7l.6 2.5c10.8-7.1 17.9-19.2 17.9-33.1 0-21.8-17.7-39.5-39.5-39.5zm-15.4 66.1c.1-.1.2-.1.2-.1l-.2.1zm35.9-8.9v-.1.1z"/><path fill="#5D4037" d="M163.6 82.1c-.1-.3-.2-.5-.3-.7v-.1c-.2-.2-.3-.4-.4-.6-.6-.9-1.2-1.6-1.7-2.1l-.2-.2c-.1-.1-.1-.2-.2-.2l-.1-.1-.1-.1c-1-1-2-1.8-3-2.5-.5-.4-1-.7-1.5-1-1.1-.7-1.9-1-2.1-1.1-.8-.8-1.4-1.8-1.6-3.1-.4-2.7 1.4-5.2 3.9-5.6l6.6 8.8 4.9-15.4c.1.2.2.3.3.4l.1.1.2.3.1.1c.1 0 .1.1.2.2l.1.1.2.2.1.1c.1 0 .2.1.3.2l.1.1.3.3.1.1.4.3.1.1c.6.5 1.4.9 2.2 1.3h.1c.2 0 .4.1.6.2h.1l.6.2h.1l.6.2h.1l.7.2h.1c.4.1.9.2 1.4.3h.2c.1 0 .3.1.5.1h.1l.7.1h.1c.8.1 1.6.1 2.5.2h6.399999999999999l1.8-.2h.4l1.1-.2c.4-.2.8-.3 1.2-.3-.2-1.3-.9-2.6-1.6-3.8-.6-1.2-1.4-2.3-2.2-3.3-1.7-2-3.7-3.6-6.1-4.6-2-.9-4.2-1.5-6.4-1.5 0 0-31.4-5-26.2 34.8l7.9.3 5.4.2c.4.2 1.2.3 2 .3-.2-.9-.5-1.6-.9-2.4l-.3-.7z"/><path fill="#E65100" d="M192 111.2c.2.6.3 1.2.5 1.9-.7-2.9-1.4-5.8-2-8.7-.3.1-.8.2-1.3.3-4.4 1.4-9.4 2.3-12.6 2.4-5.4-.1-10.2-2.3-14.1-5.6-1.5 2.9-3.6 6.1-6.5 9.7h36z"/><path fill="none" d="M192 100.2v-.1"/><path fill="#00838F" d="M156.1 109.1c.1-.1.1-.1.2-.1 0 0-.1 0-.2.1z"/><path fill="#EE8100" d="M192 111.2h-36l-1.9 2.1-.3.3c-.9 1-1.6 1.9-2.4 2.9 5.9 3.5 12.8 5.5 20.1 5.5 8 0 15.4-2.4 21.6-6.4l-.6-2.5c-.2-.7-.3-1.3-.5-1.9z"/><path fill="#FFE0B2" d="M189.2 104.7c.4-.1.8-.3 1.3-.4l-.5-2.5c-1.1-5.8-2-11.2-2.1-15.4-.3-12.1 4-12.5 4-12.5h1.3c0-2.6-.3-5.4-.6-7.6-.1-1.1-.4-2.2-.7-3.3l-1.1.1-1.1.2h-.4l-1.8.2h-6.4c-.9-.1-1.7-.1-2.5-.2h-.1l-.7-.1h-.1c-.2 0-.4-.1-.5-.1h-.2c-.5-.1-1-.2-1.4-.3h-.1l-.7-.2h-.1l-.6-.2h-.1l-.6-.2h-.1c-.2-.1-.4-.2-.6-.2h-.1c-.8-.4-1.6-.8-2.2-1.3l-.1-.1-.4-.3-.1-.1-.3-.3-.1-.1c-.1-.1-.2-.2-.3-.2l-.1-.1-.2-.2-.1-.1c-.1-.1-.1-.2-.2-.2l-.1-.1-.2-.3-.1-.1c-.1-.1-.2-.2-.3-.4l-4.9 15.4-6.6-8.8c-2.5.4-4.3 2.9-3.9 5.6.2 1.3.8 2.3 1.6 3.1.2.1 1 .4 2.1 1.1.5.3 1 .6 1.5 1 1 .7 2 1.5 3 2.5l.1.1.1.1c.1 0 .1.1.2.2l.2.2c.5.5 1.1 1.2 1.7 2.1.1.2.2.4.4.6v.1l.3.6v.1l.3.7c.4.8.7 1.5.9 2.4v.1c1 3.8 1 9.1-2.5 16 .1.1.2.1.2.2 3.9 3.3 8.7 5.5 14.1 5.6 3.3-.1 8.2-.9 12.6-2.4zm-5.3-35.6c.7 0 1.2.5 1.2 1.2s-.5 1.2-1.2 1.2-1.2-.5-1.2-1.2.5-1.2 1.2-1.2z"/><circle fill="#444" cx="183.9" cy="70.3" r="1.5"/><path fill="#B9F6CA" d="M92 207.3h-.5c.1.1.3 0 .5 0zM93.2 207.3h-.1.1zM88.5 207.3c-6-.5-10-3.1-12.2-5 2.2 1.9 6.2 4.5 12.2 5zM68.8 208.3l-.1.1.1-.1c2.4-2.9 4.2-5.6 5.5-8.1 2.1-3.9 3-7.5 3.1-10.4v-.3c-2.4.9-5 1.5-7.7 1.5-11.8 0-21.4-9.6-21.4-21.4 0-8.5 4.9-15.9 12.1-19.3l15.9-11.3c3.2-2.2 7-3.5 11.1-3.5 10.6 0 19.1 8.6 19.1 19.1 0 3.6-1 7-2.8 9.9-5.7.8-10.1.8-13.6.3 3.4.7 7.8.8 13.4 0 .3 1 .4 1.3.5 2.4.1 1.2.3 2.6.4 4.1l1.5 6.2h-5.4c-.8 1.8-1.3 4.6-1.2 9.1.1 4.1 2.3 16.5 2.5 17.3l.3 1.2h.1l.1.6c11.8-6.8 19.7-19.6 19.7-34.2 0-21.8-17.7-39.5-39.5-39.5s-39.5 17.7-39.5 39.5c0 16.9 10.7 31.4 25.6 37 .1 0 .1-.1.2-.2z"/><path fill="#444" d="M69.9 175.8c-.5-.4-1-.7-1.5-1-1.1-.6-1.8-.9-2-1-.8-.7-1.3-1.8-1.5-3-.3-2.6 1.4-5 3.8-5.4.6-.1 1.2-.1 1.8.1 5.9-1.1 8.5-4.9 9.4-6.5 1.6 2.2 4.6 4.7 10.2 5.8 3.5.5 7.3 1.4 13 .6 1.8-2.9 3.4-7.2 3.4-10.8 0-10.5-8.5-19.1-19.1-19.1-4.1 0-7.9 1.3-11.1 3.5l-15.9 11.3c-7.2 3.4-12.1 10.8-12.1 19.3 0 11.8 9.6 21.4 21.4 21.4 2.7 0 5.3-.6 7.7-1.5 0-5-2.1-8.7-4.6-11.2-1-1-2-1.9-2.9-2.5zm.6-10.5z"/><path d="M70.5 165.3" fill="none"/><path fill="#8D6E63" d="M99.3 186.6c-.1-4.5.4-7.3 1.2-9.1h5.4l-1.5-6.2c-.1-1.5-.3-2.9-.4-4.1-.1-1.1-.2-1.4-.5-2.4-5.6.8-10 .7-13.4 0-5.6-1.1-8.6-3.7-10.2-5.8-.9 1.6-3.5 5.4-9.4 6.5-.6-.2-1.2-.2-1.8-.1-2.4.4-4.1 2.8-3.8 5.4.2 1.2.7 2.3 1.5 3 .2.1.9.4 2 1 .5.3 1 .6 1.5 1 .9.6 1.9 1.5 2.9 2.5 2.5 2.5 4.6 6.2 4.6 11.2v.3c-.1 3-1 6.5-3.1 10.4 0 0 .7.9 2 2.1 2.2 1.9 6.2 4.5 12.2 5 .9.1 1.9.1 3 .1h.5c.4 0 .7 0 1.1-.1h.1c2.7-.3 5.6-.9 8.9-2.1-.1-.4-.2-.9-.3-1.2-.2-.9-2.4-13.3-2.5-17.4zm-4.7-14.5c-.7 0-1.2-.5-1.2-1.2s.5-1.2 1.2-1.2 1.2.5 1.2 1.2-.5 1.2-1.2 1.2z"/><path d="M70.5 165.3M68.7 208.4" fill="none"/><path fill="#FFCC80" d="M68.7 208.4l.2-.2c-.1.1-.2.1-.2.2z"/><circle fill="#444" cx="94.6" cy="170.9" r="1.5"/><path fill="#0097A7" d="M102.2 205.1h-.1c-3.3 1.2-6.2 1.9-8.9 2.1h-.1c-.4 0-.7 0-1.1.1h-.5c-1 0-2 0-3-.1-6-.5-10-3.1-12.2-5-1.4-1.2-2-2.1-2-2.1-1.3 2.5-3.1 5.2-5.4 8l-.1.1c-.1.1-.1.2-.2.2 4.3 1.6 9 2.5 13.9 2.5 7.2 0 14-1.9 19.8-5.3 0-.1-.1-.3-.1-.5z"/><path fill="none" d="M0 0h256v256h-256z"/></g>
</svg>
