<?xml version="1.0" encoding="utf-8"?>
<!-- Generator: Adobe Illustrator 17.1.0, SVG Export Plug-In . SVG Version: 6.00 Build 0)  -->
<!DOCTYPE svg PUBLIC "-//W3C//DTD SVG 1.1//EN" "http://www.w3.org/Graphics/SVG/1.1/DTD/svg11.dtd">
<svg version="1.1" id="Layer_1" xmlns="http://www.w3.org/2000/svg" xmlns:xlink="http://www.w3.org/1999/xlink" x="0px" y="0px"
	 viewBox="0 0 256 256 " enable-background="new 0 0 256 256" xml:space="preserve">
<g id="music"><path opacity=".1" fill="#212121" enable-background="new" d="M207.3 145.5c0-27.4-21.9-49.7-49.1-50.4v-2.5h-89.8v106.9h89.8v-3.6c27.2-.7 49.1-23 49.1-50.4z"/><linearGradient id="music_1_" gradientUnits="userSpaceOnUse" x1="113.53" y1="137.477" x2="203.33" y2="137.477" gradientTransform="matrix(1 0 0 -1 -14.33 254.827)"><stop offset="0" stop-color="#fff"/><stop offset="1"/></linearGradient><path opacity=".1" fill="url(#music_1_)" enable-background="new" d="M99.2 63.9h89.8v106.9h-89.8z"/><path fill="#0F9D58" d="M80.8 62.1h106.3v106.3h-106.3z"/><path opacity=".1" fill="#212121" enable-background="new" d="M184.301 163.198l-88.435 15.589-18.558-105.275 88.435-15.589z"/><path fill="#FFAB91" d="M182.402 161.182l-104.684 18.454-18.454-104.684 104.684-18.454z"/><circle fill="#262626" cx="155" cy="142.7" r="50.4"/><circle fill="#FDD835" cx="155" cy="142.7" r="16.5"/><circle fill="#263238" cx="155" cy="142.7" r="2.7"/><path d="M155 101.5c-22.8 0-41.2 18.5-41.2 41.2 0 22.8 18.5 41.2 41.2 41.2s41.2-18.5 41.2-41.2c.1-22.7-18.4-41.2-41.2-41.2zm0 81.6c-22.3 0-40.3-18.1-40.3-40.3s18.1-40.3 40.3-40.3 40.3 18.1 40.3 40.3-18 40.3-40.3 40.3zM155 110.7c-17.7 0-32.1 14.4-32.1 32.1s14.4 32.1 32.1 32.1 32.1-14.4 32.1-32.1-14.3-32.1-32.1-32.1zm0 63.2c-17.2 0-31.2-14-31.2-31.2s14-31.2 31.2-31.2 31.2 14 31.2 31.2c0 17.3-14 31.2-31.2 31.2z"/><path fill="#00ACC1" d="M48.7 89.6h106.3v106.3h-106.3z"/><path fill="#FDD835" d="M71.8 103.4h25.5v6.8h-25.5z"/><circle opacity=".5" fill="#64FFDA" enable-background="new" cx="91.3" cy="151.8" r="19.5"/><path opacity=".5" fill="#4527A0" enable-background="new" d="M91.9 151.1l20.7-35.8 20.6 35.8z"/><g fill="#FDD835"><path d="M129.1 171.2c-.3 0-.5-.2-.5-.5 0-1.2-.8-1.8-1.7-2.5-.9-.7-2-1.6-2-3.2s1.1-2.5 2-3.2 1.7-1.3 1.7-2.5-.8-1.8-1.7-2.5c-.9-.7-2-1.6-2-3.2s1.1-2.5 2-3.2 1.7-1.3 1.7-2.5-.8-1.8-1.7-2.5c-.9-.7-2-1.6-2-3.2s1.1-2.5 2-3.2 1.7-1.3 1.7-2.5c0-.3.2-.5.5-.5s.5.2.5.5c0 1.6-1.1 2.5-2 3.2-.9.7-1.7 1.3-1.7 2.5s.8 1.8 1.7 2.5 2 1.6 2 3.2-1.1 2.5-2 3.2c-.9.7-1.7 1.3-1.7 2.5s.8 1.8 1.7 2.5 2 1.6 2 3.2-1.1 2.5-2 3.2c-.9.7-1.7 1.3-1.7 2.5s.8 1.8 1.7 2.5 2 1.6 2 3.2c0 .3-.2.5-.5.5zM116.1 171.2c-.3 0-.5-.2-.5-.5 0-1.2-.8-1.8-1.7-2.5-.9-.7-2-1.6-2-3.2s1.1-2.5 2-3.2 1.7-1.3 1.7-2.5-.8-1.8-1.7-2.5c-.9-.7-2-1.6-2-3.2s1.1-2.5 2-3.2 1.7-1.3 1.7-2.5-.8-1.8-1.7-2.5c-.9-.7-2-1.6-2-3.2s1.1-2.5 2-3.2 1.7-1.3 1.7-2.5c0-.3.2-.5.5-.5s.5.2.5.5c0 1.6-1.1 2.5-2 3.2s-1.7 1.3-1.7 2.5.8 1.8 1.7 2.5c.9.7 2 1.6 2 3.2s-1.1 2.5-2 3.2-1.7 1.3-1.7 2.5.8 1.8 1.7 2.5c.9.7 2 1.6 2 3.2s-1.1 2.5-2 3.2-1.7 1.3-1.7 2.5.8 1.8 1.7 2.5c.9.7 2 1.6 2 3.2 0 .3-.2.5-.5.5zM122.7 171.2c-.3 0-.5-.2-.5-.5 0-1.2-.8-1.8-1.7-2.5-.9-.7-2-1.6-2-3.2s1.1-2.5 2-3.2 1.7-1.3 1.7-2.5-.8-1.8-1.7-2.5c-.9-.7-2-1.6-2-3.2s1.1-2.5 2-3.2 1.7-1.3 1.7-2.5-.8-1.8-1.7-2.5c-.9-.7-2-1.6-2-3.2s1.1-2.5 2-3.2 1.7-1.3 1.7-2.5c0-.3.2-.5.5-.5s.5.2.5.5c0 1.6-1.1 2.5-2 3.2s-1.7 1.3-1.7 2.5.8 1.8 1.7 2.5c.9.7 2 1.6 2 3.2s-1.1 2.5-2 3.2-1.7 1.3-1.7 2.5.8 1.8 1.7 2.5c.9.7 2 1.6 2 3.2s-1.1 2.5-2 3.2-1.7 1.3-1.7 2.5.8 1.8 1.7 2.5c.9.7 2 1.6 2 3.2 0 .3-.3.5-.5.5z"/></g><linearGradient id="music_2_" gradientUnits="userSpaceOnUse" x1="181.157" y1="113.75" x2="159.16" y2="113.75" gradientTransform="matrix(1 0 0 -1 0 256)"><stop offset="0" stop-color="#fff"/><stop offset="1"/></linearGradient><path opacity=".2" fill="url(#music_2_)" enable-background="new" d="M155 91.3h2.7v101.9h-2.7z"/><path fill="none" d="M0 0h256v256h-256z"/></g>
</svg>
