<?xml version="1.0" encoding="utf-8"?>
<!-- Generator: Adobe Illustrator 17.1.0, SVG Export Plug-In . SVG Version: 6.00 Build 0)  -->
<!DOCTYPE svg PUBLIC "-//W3C//DTD SVG 1.1//EN" "http://www.w3.org/Graphics/SVG/1.1/DTD/svg11.dtd">
<svg version="1.1" id="Layer_1" xmlns="http://www.w3.org/2000/svg" xmlns:xlink="http://www.w3.org/1999/xlink" x="0px" y="0px"
	 viewBox="0 0 256 256 " enable-background="new 0 0 256 256" xml:space="preserve">
<g id="history"><path fill="#89695E" d="M120.1 114.5c0-2.4.2-4.7.7-7s1.1-4.4 2-6.5 2-4.1 3.2-5.9c1.2-1.9 2.7-3.6 4.2-5.1 1.6-1.6 3.3-3 5.1-4.2 1.9-1.3 3.8-2.3 5.9-3.2 2.1-.9 4.3-1.6 6.5-2 2.3-.5 4.6-.7 7-.7s4.7.2 7 .7 4.4 1.1 6.5 2 4.1 2 5.9 3.2c1.9 1.3 3.6 2.7 5.1 4.2s3 3.3 4.2 5.1c1.2 1.9 2.3 3.8 3.2 5.9s1.6 4.3 2 6.5c.5 2.3.7 4.6.7 7h-69.2zM236.5 126h-116.4v-11.5l116.4-11zM224.7 103.5c0-3.3 2.6-5.9 5.9-5.9.4 0 .8.7 1.2.8.1 0 .3-.3.5-.3l.3-.2c2.3.8 3.9 3 3.9 5.6 0 3.3-2.6 5.9-5.9 5.9s-5.9-2.7-5.9-5.9zM162 80.4l70.6 17.5s-.1 13.3 0 13.3-49.5 5.1-49.2 5c.1-.1-21.4-35.8-21.4-35.8zM160.3 139.7c-5.5 0-10-2.3-10-5 0-2.8-4.5-5-10-5h-10.1c-5.5 0-10 2.3-10 5v13.3s4.5 8.3 10 8.3h96.3c5.5 0 10-3.7 10-8.3s-4.5-8.3-10-8.3h-66.2z"/><circle fill="#89695E" cx="126.1" cy="150.4" r="5.9"/><path fill="#89695E" d="M201.1 139.7h35.4v9h-35.4z"/><circle fill="#fff" cx="149.8" cy="98.6" r="8.9"/><circle fill="#fff" cx="149.8" cy="107.5" r="8.9"/><circle fill="#fff" cx="177.8" cy="105.5" r="11"/><circle fill="#fff" cx="223.9" cy="108.3" r="4.9"/><path fill="#fff" d="M140.9 97.6h17.8v10h-17.8zM219.1 103.4h4.9v4.9h-4.9z"/><path fill="#F1CA3A" d="M158.6 135c-2.2 0-3.1-1.6-2-3.5l.1-.1c1.1-1.9 2.9-1.9 4 0l.1.1c1.1 1.9.2 3.5-2 3.5h-.2zM166.7 129.3c2.2 0 3.1 1.6 2 3.5l-.1.1c-1.1 1.9-2.9 1.9-4 0l-.1-.1c-1.1-1.9-.2-3.5 2-3.5h.2zM174.6 135c-2.2 0-3.1-1.6-2-3.5l.1-.1c1.1-1.9 2.9-1.9 4 0l.1.1c1.1 1.9.2 3.5-2 3.5h-.2zM182.7 129.3c2.2 0 3.1 1.6 2 3.5l-.1.1c-1.1 1.9-2.9 1.9-4 0l-.1-.1c-1.1-1.9-.2-3.5 2-3.5h.2zM190.6 135c-2.2 0-3.1-1.6-2-3.5l.1-.1c1.1-1.9 2.9-1.9 4 0l.1.1c1.1 1.9.2 3.5-2 3.5h-.2zM198.7 129.3c2.2 0 3.1 1.6 2 3.5l-.1.1c-1.1 1.9-2.9 1.9-4 0l-.1-.1c-1.1-1.9-.2-3.5 2-3.5h.2zM206.5 135c-2.2 0-3.1-1.6-2-3.5l.1-.1c1.1-1.9 2.9-1.9 4 0l.1.1c1.1 1.9.2 3.5-2 3.5h-.2zM214.7 129.3c2.2 0 3.1 1.6 2 3.5l-.1.1c-1.1 1.9-2.9 1.9-4 0l-.1-.1c-1.1-1.9-.2-3.5 2-3.5h.2zM222.5 135c-2.2 0-3.1-1.6-2-3.5l.1-.1c1.1-1.9 2.9-1.9 4 0l.1.1c1.1 1.9.2 3.5-2 3.5h-.2zM230.6 129.3c2.2 0 3.1 1.6 2 3.5l-.1.1c-1.1 1.9-2.9 1.9-4 0l-.1-.1c-1.1-1.9-.2-3.5 2-3.5h.2z"/><path fill="#89695E" d="M111.8 146.3c0 5.5-4.5 10-10 10h-6.6c-5.5 0-10-4.5-10-10v-6.6c0-5.5 4.5-10 10-10h6.6c5.5 0 10 4.5 10 10v6.6zM76.9 146.3c0 5.5-4.5 10-10 10h-6.6c-5.5 0-10-4.5-10-10v-6.6c0-5.5 4.5-10 10-10h6.6c5.5 0 10 4.5 10 10v6.6z"/><circle fill="#89695E" cx="105.9" cy="123.8" r="5.9"/><path fill="#89695E" d="M100 123.8h11.8v14.2h-11.8z"/><circle fill="#89695E" cx="71" cy="123.8" r="5.9"/><path fill="#89695E" d="M65.1 123.8h11.8v14.2h-11.8zM41.8 146.3c0 5.5-4.5 10-10 10h-6.6c-5.5 0-10-4.5-10-10v-6.6c0-5.5 4.5-10 10-10h6.6c5.5 0 10 4.5 10 10v6.6z"/><circle fill="#89695E" cx="35.9" cy="123.8" r="5.9"/><path fill="#89695E" d="M30 123.8h11.8v14.2h-11.8z"/><path fill="none" d="M0 0h256v256h-256z"/></g>
</svg>
