<?xml version="1.0" encoding="utf-8"?>
<!-- Generator: Adobe Illustrator 17.1.0, SVG Export Plug-In . SVG Version: 6.00 Build 0)  -->
<!DOCTYPE svg PUBLIC "-//W3C//DTD SVG 1.1//EN" "http://www.w3.org/Graphics/SVG/1.1/DTD/svg11.dtd">
<svg version="1.1" id="Layer_1" xmlns="http://www.w3.org/2000/svg" xmlns:xlink="http://www.w3.org/1999/xlink" x="0px" y="0px"
	 viewBox="0 0 256 256 " enable-background="new 315 0 512 512" xml:space="preserve">
<g id="polymer"><path fill="#303F9F" d="M83.5 130.1l-14.9 25.8 14.9 25.9 14.9-25.9z"/><path fill="#3F51B5" d="M173 78.5l-14.9 25.8 14.9 25.8 14.9-25.8z"/><path fill="#FF4080" d="M143.2 78.5l-59.7 103.3h29.8l59.7-103.3z"/><path fill="#536DFE" d="M83.5 78.5l-29.8 51.6 14.9 25.8 44.7-77.4z"/><path fill="#fff" fill-opacity=".2" d="M143.2 78.5l14.9 25.8 14.9-25.8z"/><path fill="#fff" fill-opacity=".1" d="M128.2 104.3l15-25.8 14.9 25.8z"/><path fill="none" d="M128.2 104.3l15 25.8 14.9-25.8z"/><path fill-opacity=".1" d="M113.3 130.1l14.9-25.8 15 25.8z"/><path fill-opacity=".2" d="M113.3 130.1l14.9 25.8 15-25.8z"/><path fill-opacity=".3" d="M98.4 155.9l14.9-25.8 14.9 25.8z"/><path fill-opacity=".4" d="M98.4 155.9l14.9 25.9 14.9-25.9z"/><path fill-opacity=".5" d="M83.5 181.8l14.9-25.9 14.9 25.9z"/><path fill="#fff" fill-opacity=".2" d="M83.5 78.5l14.9 25.8 14.9-25.8z"/><path fill="#fff" fill-opacity=".1" d="M68.6 104.3l14.9-25.8 14.9 25.8z"/><path fill="none" d="M68.6 104.3l14.9 25.8 14.9-25.8z"/><path fill-opacity=".1" d="M53.7 130.1l14.9-25.8 14.9 25.8z"/><path fill-opacity=".2" d="M53.7 130.1l14.9 25.8 14.9-25.8z"/><path fill="none" d="M98.4 155.9l-14.9-25.8-14.9 25.8z"/><path fill-opacity=".2" d="M98.4 155.9l-14.9 25.9-14.9-25.9zM187.9 104.3l-14.9-25.8-14.9 25.8z"/><path fill="none" d="M187.9 104.3l-14.9 25.8-14.9-25.8z"/><path fill="#7986CB" d="M187.9 104.3l-44.7 77.5h29.8l29.8-51.7z"/><g fill="#fff"><path fill-opacity=".2" d="M173 130.1l14.9-25.8 14.9 25.8z"/><path fill-opacity=".1" d="M173 130.1l14.9 25.8 14.9-25.8z"/></g><path fill="none" d="M158.1 155.9l14.9-25.8 14.9 25.8z"/><path fill-opacity=".1" d="M158.1 155.9l14.9 25.9 14.9-25.9z"/><path fill-opacity=".2" d="M143.2 181.8l14.9-25.9 14.9 25.9z"/><path fill="#00BCD4" d="M56.6 39.2c-12.7-2.9-25.4 5.1-28.3 17.8s5.1 25.4 17.8 28.3c5.7 1.3 11.4.4 16.2-2.1l5.1 5.8-1.2-8.3c4-3.2 7.1-7.8 8.3-13.2 2.8-12.7-5.1-25.4-17.9-28.3z"/><path fill="#F1F8E9" d="M48.9 65.4c0-1.4.1-2.5.4-3.2.3-.8.8-1.5 1.6-2.3.7-.7 1.2-1.3 1.5-1.8s.5-1.1.5-1.8c0-.9-.2-1.6-.6-2-.4-.5-1-.7-1.7-.7s-1.2.2-1.7.6c-.5.4-.7 1-.7 1.9h-4.2c0-2 .6-3.4 1.8-4.4s2.8-1.5 4.8-1.5c2.1 0 3.7.5 4.8 1.5s1.7 2.5 1.7 4.4c0 1.2-.3 2.1-.8 3-.5.8-1.3 1.7-2.3 2.7-.5.5-.9 1.1-1.1 1.6-.2.5-.3 1.2-.3 2h-3.7zm-.6 4.3c0-.6.2-1.2.6-1.6.4-.4 1-.6 1.7-.6s1.3.2 1.7.6.6.9.6 1.6c0 .6-.2 1.2-.6 1.6-.4.4-1 .6-1.7.6s-1.3-.2-1.7-.6c-.3-.4-.6-1-.6-1.6z"/><path fill="none" d="M0 0h256v256h-256z"/></g>
</svg>
