<?xml version="1.0" encoding="utf-8"?>
<!DOCTYPE svg PUBLIC "-//W3C//DTD SVG 1.1//EN" "http://www.w3.org/Graphics/SVG/1.1/DTD/svg11.dtd">
<svg version="1.1" id="Layer_1" xmlns="http://www.w3.org/2000/svg" xmlns:xlink="http://www.w3.org/1999/xlink" x="0px" y="0px" viewBox="0 0 512 512" enable-background="new 315 0 512 512" xml:space="preserve">
<g id="science">
<ellipse opacity=".1" fill="#444" enable-background="new" cx="350.7" cy="388.8" rx="80.4" ry="8.3"/>
<path fill="#37474F" d="M302 324h74v32h-74zM369.7 364.7c-4.7 0-9.4-1.5-13.5-4.6-9.5-7.4-11.2-21.2-3.8-30.7.7-.9 1.5-1.8 2.4-2.9 29.6-34.7 19.9-51.3 6.5-62.9-9.1-7.9-10.1-21.7-2.2-30.9 7.9-9.1 21.7-10.1 30.9-2.2 24.9 21.5 33.6 49.8 24.6 79.4-6.6 21.6-20.5 37.9-26.5 44.9-.5.6-.9 1.1-1.2 1.5-4.3 5.5-10.7 8.4-17.2 8.4z"/>
<path fill="#263238" d="M390 230.4c-5.9-5.1-13.8-6.5-20.7-4.4 2.8.9 7 2.4 9.5 4.3 73.7 55.4-8.7 130-4.7 125.9 3.3-3.3-6.7 6.2-10.8 7.5 2.1.6 4.2 1 6.4 1 6.5 0 12.9-2.9 17.3-8.4.3-.4.7-.8 1.2-1.5 6-7 19.9-23.3 26.5-44.9 8.9-29.7.2-57.9-24.7-79.5z"/>
<path fill="#FDD835" d="M152.1 223.6c5-6.8 7.5-15.4 6.4-24.4-2.3-18.7-19.3-31.9-37.9-29.6-18.7 2.3-31.9 19.3-29.6 37.9s19.3 31.9 37.9 29.6c7.4-.9 14-4.2 19-8.9l9.7 4.9-5.5-9.5z"/>
<path fill="#FFEE58" d="M242.3 94.5c-28.5-6.5-57 11.3-63.5 39.9-6.5 28.6 11.3 57 39.9 63.5 12.7 2.9 25.5 1 36.2-4.6l11.4 13.1-2.7-18.7c9.1-7.2 15.8-17.4 18.6-29.6 6.5-28.7-11.3-57.1-39.9-63.6z"/>
<path fill="#334151" d="M286.1 379.3h130.8v9.5h-130.8z"/>
<path fill="#546E7A" d="M364.1 323c-8.8 0-12.6 7.3-12.6 15.2v41.1h51.5c-.1-32.9-23.2-56.3-38.9-56.3zM268.139 279.73l47.629 36.655-5.062 6.578-47.629-36.655zM383.3 242.4l10.3-13.4-13-10.1-32.2 41.7 13 10.1 8.6-11.1c.9.7 2 1.2 3.2 1.6 5.8 1.8 11.9-1.4 13.7-7.2 1.3-4.2-.3-8.8-3.6-11.6z"/>
<path fill="#37474F" d="M359.462 174.644l34.685 26.749-61.192 79.348-34.685-26.749z"/>
<path fill="#546E7A" d="M376.235 170.349l17.818 13.741-8.306 10.77-17.818-13.741zM304.164 258.512l22.886 17.649-6.29 8.157-22.886-17.649z"/>
<path fill="#263238" d="M302.369 270.05l14.017 10.809-6.168 7.998-14.017-10.809z"/>
<circle fill="#fff" cx="376.4" cy="250.9" r="6"/>
<circle fill="#fff" cx="365.4" cy="336.9" r="6"/>
<g fill="#827717">
<path d="M108.7 204.1h-4.7v3.3h5.5v1.8h-7.8v-11.7h7.8v1.8h-5.5v2.9h4.7v1.9zM118.1 203.2h-7.2v-1.9h7.2v1.9zm0 3.5h-7.2v-1.9h7.2v1.9zM123.5 197.5l3.1 8.6 3.1-8.6h3.1v11.7h-2.3v-3.4l.2-5.4-3.2 8.8h-1.6l-3.2-8.8.2 5.4v3.4h-2.3v-11.7h2.9zM144 205.3c-.1 1.2-.5 2.2-1.3 2.9-.8.7-1.9 1.1-3.3 1.1-1.5 0-2.7-.5-3.5-1.5s-1.3-2.4-1.3-4.1v-.8c0-1.7.4-3.1 1.3-4.1.9-1 2-1.5 3.6-1.5 1.4 0 2.5.4 3.3 1.1.8.7 1.2 1.7 1.4 3h-2.3c-.1-.8-.3-1.3-.6-1.7-.3-.4-.9-.6-1.7-.6-.8 0-1.5.3-1.9.9-.4.6-.6 1.6-.6 2.8v.8c0 1.3.2 2.2.6 2.8.4.6 1 .9 1.9.9.8 0 1.3-.2 1.7-.5.4-.4.6-.9.7-1.7h2zM150.5 203.8h-5v-1.3l2.5-2c.3-.3.5-.5.6-.7.1-.2.1-.4.1-.6 0-.2-.1-.4-.2-.5-.1-.1-.3-.2-.6-.2s-.5.1-.7.2-.2.4-.2.6h-1.7c0-.6.2-1.1.7-1.5.5-.4 1.1-.6 1.9-.6.8 0 1.4.2 1.8.5.4.3.6.8.6 1.5 0 .4-.1.8-.4 1.2-.3.3-.8.8-1.4 1.3l-.9.8h2.8v1.3z"/>
</g>
<path fill="#263238" d="M378.519 189.36l11.562 8.916-61.192 79.348-11.562-8.916z"/>
<path fill="#D7CCC8" d="M218.6 165.9c-.4 0-.9-.1-1.3-.3-1.3-.7-1.7-2.3-1-3.6l7.9-14.3c.7-1.3 2.3-1.7 3.6-1 1.3.7 1.7 2.3 1 3.6l-8 14.3c-.4.8-1.3 1.3-2.2 1.3z"/>
<circle fill="#0F9D58" cx="217.2" cy="165.8" r="8"/>
<path fill="#87CEAC" d="M221.3 159c-.1-.1-.2-.1-.4-.2-3.9-2.1-8.7-.6-10.8 3.3-2.1 3.9-.6 8.7 3.3 10.8l.4.2 7.5-14.1z"/>
<circle fill="#0F9D58" cx="230.7" cy="144.5" r="8.5"/>
<path fill="#87CEAC" d="M231.2 136h-.4c-4.7 0-8.5 3.8-8.5 8.5s3.8 8.5 8.5 8.5h.4v-17z"/>
<path fill="#D7CCC8" d="M228.1 143.6c-.9 0-1.7-.4-2.3-1.2l-7.9-12.7c-.8-1.2-.4-2.9.8-3.7 1.2-.8 2.9-.4 3.7.8l7.9 12.7c.8 1.2.4 2.9-.8 3.7-.4.3-.9.4-1.4.4zM249.3 151.6c-.2 0-.5 0-.7-.1l-13.2-3.7c-1.4-.4-2.2-1.9-1.8-3.3.4-1.4 1.9-2.2 3.3-1.8l13.2 3.7c1.4.4 2.2 1.9 1.8 3.3-.4 1.1-1.4 1.9-2.6 1.9z"/>
<circle fill="#0F9D58" cx="219.1" cy="126.1" r="6.9"/>
<path fill="#87CEAC" d="M219.5 119.2h-.4c-3.8 0-6.9 3.1-6.9 6.9 0 3.8 3.1 6.9 6.9 6.9h.4v-13.8z"/>
<circle fill="#0F9D58" cx="253.7" cy="150.4" r="8"/>
<path fill="#87CEAC" d="M254.1 142.5h-.4c-4.4 0-8 3.6-8 8s3.6 8 8 8h.4v-16z"/>
<path opacity=".1" fill="#444" enable-background="new" d="M202.1 390.2c-3.9 0-7.6.2-10.7.6 4-1.6 6.3-3.3 6.3-5.3 0-5.7-19.4-10.3-43.2-10.3s-43.2 4.6-43.2 10.3 19.4 10.3 43.2 10.3c10 0 19.1-.8 26.4-2.2-.3.2-.5.6-.5.9 0 2.3 9.7 4.2 21.7 4.2 11.9 0 21.7-1.9 21.7-4.2 0-2.4-9.7-4.3-21.7-4.3z"/>
<path fill="#F5F5F5" d="M164.4 330v-38.6h-21.8v38.6h-.2l-27.9 45.5c-3.8 8.8 3.6 12.1 10.3 12.1h57.2c6.7 0 15.5-3.5 10.3-12.1l-27.9-45.5z"/>
<path fill="#7CB342" d="M178.1 352.3h-49.5l-14.3 23.2c-3.8 8.8 3.6 12.1 10.3 12.1h57.4c6.7 0 15.5-3.5 10.3-12.1l-14.2-23.2z"/>
<path fill="#558B2F" d="M178.1 352.3h-23.7v35.2h27.6c6.7 0 15.5-3.5 10.3-12.1l-14.2-23.1z"/>
<circle opacity=".2" fill="#fff" enable-background="new" cx="161.1" cy="379.7" r="3.3"/>
<circle opacity=".2" fill="#fff" enable-background="new" cx="162.5" cy="359.8" r="2.8"/>
<circle opacity=".2" fill="#fff" enable-background="new" cx="178.9" cy="379.7" r="3.4"/>
<circle opacity=".2" fill="#fff" enable-background="new" cx="166.8" cy="371.9" r="2"/>
<path opacity=".2" fill="#fff" enable-background="new" d="M178.2 361.2c0 1.2-1 2.2-2.2 2.2-1.2 0-2.2-1-2.2-2.2 0-1.2 1-2.2 2.2-2.2s2.2 1 2.2 2.2zM143.7 359.7c0-2.2 1.8-3.8 3.8-3.8 2.2 0 3.8 1.8 3.8 3.8 0 2.2-1.8 3.8-3.8 3.8-2.1.1-3.8-1.6-3.8-3.8z"/>
<circle opacity=".2" fill="#fff" enable-background="new" cx="147.6" cy="379.7" r="2.8"/>
<circle opacity=".2" fill="#fff" enable-background="new" cx="129.8" cy="365.1" r="3.4"/>
<circle opacity=".2" fill="#fff" enable-background="new" cx="139.3" cy="370.8" r="2"/>
<path opacity=".2" fill="#fff" enable-background="new" d="M127.6 379.7c0-1.3 1-2.3 2.3-2.3 1.3 0 2.3 1 2.3 2.3s-1 2.3-2.3 2.3c-1.4 0-2.3-1.1-2.3-2.3z"/>
<path fill="#F5F5F5" d="M186.7 310.4v70.4c0 10.1 6.8 15.7 15.4 15.7 8.5 0 15.4-5.6 15.4-15.7v-70.4h-30.8z"/>
<path fill="#E0E0E0" d="M202 396.5c8.5 0 15.4-5.6 15.4-15.7v-70.4h-15.4v86.1z"/>
<path fill="#AFB42B" d="M217.5 338.2v42.6c0 10.1-6.8 15.7-15.4 15.7s-15.4-5.6-15.4-15.7v-42.6h30.8z"/>
<path opacity=".2" fill="#424242" enable-background="new" d="M186.8 310.9h30.7v2.5h-30.7z"/>
<path fill="#E1E1E1" d="M185.2 310.9h33.8c1.6 0 2.9-1.5 2.9-3.3 0-1.9-1.3-3.4-2.9-3.4h-33.8c-1.6 0-2.9 1.5-2.9 3.4.1 1.8 1.3 3.3 2.9 3.3z"/>
<path fill="#9E9D24" d="M202 396.5c8.5 0 15.4-5.6 15.4-15.7v-42.6h-15.4v58.3z"/>
<path fill="#646464" d="M209.3 347.2h8.1v2.1h-8.1zM209.3 360.8h8.1v2h-8.1zM209.3 374.3h8.1v2h-8.1zM209.3 320.2h8.1v2.1h-8.1zM209.3 333.7h8.1v2.1h-8.1z"/>
<path opacity=".2" fill="#424242" enable-background="new" d="M142.5 291.3h21.9v2.5h-21.9z"/>
<path fill="#E1E1E1" d="M140.9 291.3h25c1.6 0 2.9-1.5 2.9-3.3 0-1.9-1.3-3.4-2.9-3.4h-25c-1.6 0-2.9 1.5-2.9 3.4 0 1.8 1.3 3.3 2.9 3.3z"/>
<path fill="none" d="M0 0h512v512h-512z"/>
</g>

</svg>
