<?xml version="1.0" encoding="utf-8"?>
<!DOCTYPE svg PUBLIC "-//W3C//DTD SVG 1.1//EN" "http://www.w3.org/Graphics/SVG/1.1/DTD/svg11.dtd">
<svg version="1.1" id="Layer_1" xmlns="http://www.w3.org/2000/svg" xmlns:xlink="http://www.w3.org/1999/xlink" x="0px" y="0px" viewBox="0 0 512 512" enable-background="new 315 0 512 512" xml:space="preserve">
<g id="entertainment">
<path fill="#FACB43" d="M116.1 148.1l10.2-9.4 2.8 13.6 13.8-1.6-5.8 12.6 12.1 6.9-12.1 6.8 5.8 12.6-13.8-1.6-2.8 13.6-10.2-9.4-10.2 9.4-2.8-13.6-13.8 1.6 5.8-12.6-12.1-6.8 12.1-6.9-5.8-12.6 13.8 1.6 2.8-13.6z"/>
<path fill="#F48059" d="M116.1 185.8l-7.2 6.7-2-9.7-9.8 1.2 4.1-9-8.6-4.8 8.6-4.9-4.1-8.9 9.8 1.1 2-9.7 7.2 6.7 7.3-6.7 1.9 9.7 9.8-1.1-4.1 8.9 8.6 4.9-8.6 4.8 4.1 9-9.8-1.2-1.9 9.7z"/>
<ellipse opacity=".1" fill="#212121" cx="126.9" cy="383.2" rx="63.5" ry="8.4"/>
<ellipse opacity=".1" fill="#212121" cx="409.9" cy="384.2" rx="63.5" ry="8.4"/>
<ellipse opacity=".1" fill="#212121" cx="280.2" cy="367.2" rx="59.1" ry="8.4"/>
<path fill="#00ACC1" d="M52.9 296.4h24.3v25.9h-24.3z"/>
<path fill="#00838F" d="M52.3 296.4h2.5v25.9h-2.5z"/>
<path fill="#7E57C2" d="M177.5 296.4h9.2v25.9h-9.2zM186.7 292.7h9.2v33.3h-9.2zM195.8 285.3h9.2v48.1h-9.2z"/>
<path fill="#673AB7" d="M184.2 296.4h2.5v25.9h-2.5zM193.3 292.7h2.5v33.3h-2.5z"/>
<path fill="#424242" d="M119.196 340.523l23.267 12.686-18.621 34.154-23.267-12.686zM122.5 247.9c0 11.2-9.1 20.3-20.3 20.3-11.2 0-20.3-9.1-20.3-20.3 0-11.2 9.1-20.3 20.3-20.3 11.2 0 20.3 9.1 20.3 20.3zM52.4 321.2c0 3.4-2.7 6.1-6.1 6.1-3.4 0-6.1-2.7-6.1-6.1v-23.8c0-3.4 2.7-6.1 6.1-6.1 3.4 0 6.1 2.7 6.1 6.1v23.8z"/>
<path fill="#646464" d="M102.4 345.5h49.6v8.4h-49.6z"/>
<path fill="#424242" d="M77 272.9h100.4v72.8h-100.4z"/>
<circle fill="#DA4637" cx="162.9" cy="287.3" r="6.1"/>
<circle fill="#DA4637" cx="162.9" cy="306.6" r="6.1"/>
<path fill="#BABABA" d="M119.9 230.3c-4.5-4.5-10.8-7.3-17.7-7.3s-13.1 2.8-17.7 7.3c-4.5 4.5-7.3 10.8-7.3 17.7 0 6.9 2.8 13.1 7.3 17.7 4.5 4.5 10.8 7.3 17.7 7.3s13.1-2.8 17.7-7.3c4.5-4.5 7.3-10.8 7.3-17.7 0-7-2.8-13.2-7.3-17.7zm-23.7-2.9c3.3-3.3 8.6-3.3 11.9 0 3.3 3.3 3.3 8.6 0 11.9-3.3 3.3-8.6 3.3-11.9 0-3.2-3.3-3.2-8.6 0-11.9zm-14.5 26.5c-3.3-3.3-3.3-8.6 0-11.9 3.3-3.3 8.6-3.3 11.9 0 3.3 3.3 3.3 8.6 0 11.9s-8.6 3.3-11.9 0zm26.5 14.5c-3.3 3.3-8.6 3.3-11.9 0-3.3-3.3-3.3-8.6 0-11.9 3.3-3.3 8.6-3.3 11.9 0 3.2 3.3 3.2 8.6 0 11.9zm2.6-14.5c-3.3-3.3-3.3-8.6 0-11.9 3.3-3.3 8.6-3.3 11.9 0 3.3 3.3 3.3 8.6 0 11.9-3.3 3.3-8.6 3.3-11.9 0z"/>
<circle fill="#F57C00" cx="102.2" cy="247.9" r="3"/>
<path fill="#424242" d="M172.5 247.9c0 11.2-9.1 20.3-20.3 20.3-11.2 0-20.3-9.1-20.3-20.3 0-11.2 9.1-20.3 20.3-20.3 11.2 0 20.3 9.1 20.3 20.3z"/>
<path fill="#BABABA" d="M169.8 230.3c-4.5-4.5-10.8-7.3-17.7-7.3-6.9 0-13.1 2.8-17.7 7.3-4.5 4.5-7.3 10.8-7.3 17.7 0 6.9 2.8 13.1 7.3 17.7 4.5 4.5 10.8 7.3 17.7 7.3 6.9 0 13.1-2.8 17.7-7.3 4.5-4.5 7.3-10.8 7.3-17.7.1-7-2.7-13.2-7.3-17.7zm-23.6-2.9c3.3-3.3 8.6-3.3 11.9 0 3.3 3.3 3.3 8.6 0 11.9-3.3 3.3-8.6 3.3-11.9 0-3.3-3.3-3.3-8.6 0-11.9zm-14.5 26.5c-3.3-3.3-3.3-8.6 0-11.9 3.3-3.3 8.6-3.3 11.9 0 3.3 3.3 3.3 8.6 0 11.9-3.3 3.3-8.7 3.3-11.9 0zm26.4 14.5c-3.3 3.3-8.6 3.3-11.9 0s-3.3-8.6 0-11.9c3.3-3.3 8.6-3.3 11.9 0 3.3 3.3 3.3 8.6 0 11.9zm2.7-14.5c-3.3-3.3-3.3-8.6 0-11.9 3.3-3.3 8.6-3.3 11.9 0 3.3 3.3 3.3 8.6 0 11.9-3.3 3.3-8.6 3.3-11.9 0z"/>
<circle fill="#F57C00" cx="152.2" cy="247.9" r="3"/>
<path fill="#3D3D3D" d="M362.5 321.7h96.6v62h-96.6z"/>
<path fill="#404040" d="M362.5 321.7h96.6v16.9h-96.6z"/>
<path fill="#00ACC1" d="M375.9 351.8h69.8v5.9h-69.8zM375.9 366.5h34.9v5.9h-34.9z"/>
<g fill="#BABABA">
<path d="M372.7 321.7l-10.2 10.2v6.8h10.5l17-17zM407.3 321.7l-17 17h17.3l16.9-17zM459.1 321.7h-17.3l-16.9 17h17.3l16.9-16.9z"/>
</g>
<path fill="#404040" d="M359.175 305.094l94.745-18.847 3.297 16.576-94.745 18.847z"/>
<g fill="#BABABA">
<path d="M372.5 319.8l-12-8.1-1.3-6.6 10.3-2 19.9 13.3zM406.4 313l-19.9-13.3 16.9-3.4 19.9 13.3zM457.2 302.9l-16.9 3.4-19.9-13.3 17-3.4 19.8 13.2z"/>
</g>
<circle fill="#404040" cx="362.5" cy="321.7" r="4.1"/>
<path fill="#00838F" d="M367.2 187.9h-28.4v26.299999999999997h28.4l-5.7-13.1z"/>
<circle fill="#7E57C2" cx="294.2" cy="201.1" r="36.2"/>
<path fill="#7E57C2" d="M258 154.2h72.4v46.9h-72.4z"/>
<path fill="#673AB7" d="M312 215.9c0-9.8-8-17.8-17.8-17.8s-17.8 8-17.8 17.8h35.6zM317.8 183.7c0-4.9-4-8.9-8.9-8.9s-8.9 4-8.9 8.9h17.8z"/>
<path fill="#fff" d="M288.5 183.7c0-4.9-4-8.9-8.9-8.9s-8.9 4-8.9 8.9h17.8z"/>
<path fill="#00ACC1" d="M330.4 174.8h16.8v26.2h-16.8z"/>
<path fill="#673AB7" d="M185 151.7h28.4v26.299999999999997h-28.4l5.7-13.2z"/>
<path fill="#7E57C2" d="M204.9 138.6h16.8v26.2h-16.8z"/>
<circle fill="#00ACC1" cx="258" cy="164.8" r="36.2"/>
<path fill="#00ACC1" d="M221.8 118h72.4v46.9h-72.4z"/>
<path fill="#00838F" d="M240.2 166.7c0 9.8 8 17.8 17.8 17.8s17.8-8 17.8-17.8h-35.6zM281.6 147.5c0-4.9-4-8.9-8.9-8.9s-8.9 4-8.9 8.9h17.8zM252.3 147.5c0-4.9-4-8.9-8.9-8.9s-8.9 4-8.9 8.9h17.8z"/>
<path fill="#B39DDB" d="M204.9 164.8l8.5 13.2v-13.2z"/>
<path fill="#26C6DA" d="M347.3 201.1l-8.4 13.1v-13.1z"/>
<path fill="#DA4637" d="M249.4 235.9c-3.7-3.7-9.7-3.7-13.4 0-.6.6-1.1 1.3-1.5 2-.4-.7-.9-1.4-1.5-2-3.7-3.7-9.7-3.7-13.4 0-3.7 3.7-3.7 9.7 0 13.4l14.9 14.8 14.9-14.8c3.7-3.7 3.7-9.7 0-13.4z"/>
<path fill="#673AB7" d="M325.7 354.2v-32.9c-5 0-9.1-4.1-9.1-9.1h-78.7c0 5-4.1 9.1-9.1 9.1v32.9c5 0 9.1 4.1 9.1 9.1h78.7c-.1-5 4-9.1 9.1-9.1z"/>
<path fill="#7E57C2" d="M242.4 357.7c-1.5-3.6-4.4-6.5-8-8v-23.7c3.6-1.5 6.5-4.4 8-8h69.6c1.5 3.6 4.4 6.5 8 8v23.7c-3.6 1.5-6.5 4.4-8 8h-69.6z"/>
<path fill="#B39DDB" d="M260.6 324h33.1v11.6h-33.1zM260.6 341.7h33.1v5.8h-33.1zM249.6 318.3h5.7v39.3h-5.7zM299.5 317.7h5.7v40.4h-5.7z"/>
<path fill="#00838F" d="M319.1 371.3l23.2-23.2c-3.6-3.6-3.6-9.3 0-12.9l-55.7-55.7c-3.6 3.6-9.3 3.6-12.9 0l-23.2 23.2c3.6 3.6 3.6 9.3 0 12.9l55.7 55.7c3.5-3.5 9.3-3.5 12.9 0z"/>
<path fill="#00ACC1" d="M257.7 314.8c1.5-3.6 1.5-7.7 0-11.3l16.8-16.8c3.6 1.5 7.7 1.5 11.3 0l49.2 49.3c-1.5 3.6-1.5 7.7 0 11.3l-16.8 16.8c-3.6-1.5-7.7-1.5-11.3 0l-49.2-49.3z"/>
<path fill="#26C6DA" d="M294.425 303.991l23.405 23.405-8.202 8.202-23.405-23.405zM281.87 316.53l23.405 23.405-4.101 4.101-23.405-23.405zM262.898 319.821l27.789-27.789 4.03 4.03-27.789 27.789zM297.832 355.643l28.567-28.567 4.03 4.03-28.567 28.567z"/>
<path fill="#4D4D4D" d="M410.1 231c-4.4 4.4-11.6 4.4-16.1 0-4.4-4.4-4.4-11.6 0-16.1 7.5-7.5 23-6.9 23-6.9s.6 15.5-6.9 23zM393.978 214.88l16.122 16.122-26.87 26.87-16.122-16.122z"/>
<circle fill="#4D4D4D" cx="375.2" cy="249.8" r="11.4"/>
<path fill="#FACB43" d="M367.1 229l11 1.8-11 11-6.3-6.4zM363.325 245.601l-6.364-6.364 4.738-4.738 6.364 6.364zM369.7 239.2c-3.5-3.5-9.2-3.5-12.7 0s-3.5 9.2 0 12.7l12.7-12.7zM396 257.9l-1.8-11-11 11 6.4 6.3zM384.205 256.94l6.364 6.364-4.738 4.738-6.364-6.364zM385.8 255.3c3.5 3.5 3.5 9.2 0 12.7s-9.2 3.5-12.7 0l12.7-12.7zM385.219 237.968l1.768 1.768-21.142 21.142-1.768-1.768z"/>
<path fill="#00ACC1" d="M393.3 215.6c1.6 1.6 1.6 4.2 0 5.7-1.6 1.6-4.2 1.6-5.7 0l5.7-5.7zM403.6 237.5c-1.6-1.6-1.6-4.2 0-5.7 1.6-1.6 4.2-1.6 5.7 0l-5.7 5.7zM395.6 229.4c-1.6-1.6-1.6-4.2 0-5.7 1.6-1.6 4.2-1.6 5.7 0l-5.7 5.7zM401.3 223.7c1.6 1.6 1.6 4.2 0 5.7-1.6 1.6-4.2 1.6-5.7 0l5.7-5.7z"/>
<circle fill="#3D3D3D" cx="430" cy="158" r="16"/>
<path fill="#FACB43" d="M430 132.1l5.7 17.4h18.3l-14.8 10.7 5.6 17.4-14.8-10.7-14.8 10.7 5.6-17.4-14.8-10.7h18.3z"/>
<path opacity=".3" fill="#212121" d="M250.5 315.8l11.1 47.6h36.6z"/>
<path fill="none" d="M0 0h512v512h-512z"/>
</g>
</svg>
