<?xml version="1.0" encoding="utf-8"?>
  <!DOCTYPE svg PUBLIC "-//W3C//DTD SVG 1.1//EN" "http://www.w3.org/Graphics/SVG/1.1/DTD/svg11.dtd">
<svg version="1.1" id="Layer_1" xmlns="http://www.w3.org/2000/svg" xmlns:xlink="http://www.w3.org/1999/xlink" x="0px" y="0px" viewBox="0 0 512 512" enable-background="new 0 0 512 512" xml:space="preserve">
<g id="sports"><g fill="#7E57C2"><path d="M144.2 108c0 1.6-1.3 2.9-2.9 2.9h-31.2c-1.6 0-2.9-1.3-2.9-2.9v-13.6c0-1.6 1.3-2.9 2.9-2.9h31.2c1.6 0 2.9 1.3 2.9 2.9v13.6zM189.3 108c0 1.6-1.3 2.9-2.9 2.9h-31.2c-1.6 0-2.9-1.3-2.9-2.9v-13.6c0-1.6 1.3-2.9 2.9-2.9h31.2c1.6 0 2.9 1.3 2.9 2.9v13.6zM234.3 108c0 1.6-1.3 2.9-2.9 2.9h-31.2c-1.6 0-2.9-1.3-2.9-2.9v-13.6c0-1.6 1.3-2.9 2.9-2.9h31.2c1.6 0 2.9 1.3 2.9 2.9v13.6zM279.3 108c0 1.6-1.3 2.9-2.9 2.9h-31.2c-1.6 0-2.9-1.3-2.9-2.9v-13.6c0-1.6 1.3-2.9 2.9-2.9h31.2c1.6 0 2.9 1.3 2.9 2.9v13.6zM324.4 108c0 1.6-1.3 2.9-2.9 2.9h-31.2c-1.6 0-2.9-1.3-2.9-2.9v-13.6c0-1.6 1.3-2.9 2.9-2.9h31.2c1.6 0 2.9 1.3 2.9 2.9v13.6zM369.4 108c0 1.6-1.3 2.9-2.9 2.9h-31.2c-1.6 0-2.9-1.3-2.9-2.9v-13.6c0-1.6 1.3-2.9 2.9-2.9h31.2c1.6 0 2.9 1.3 2.9 2.9v13.6zM414.5 108c0 1.6-1.3 2.9-2.9 2.9h-31.2c-1.6 0-2.9-1.3-2.9-2.9v-13.6c0-1.6 1.3-2.9 2.9-2.9h31.2c1.6 0 2.9 1.3 2.9 2.9v13.6zM125.7 134c0 1.6-1.3 2.9-2.9 2.9h-31.3c-1.6 0-2.9-1.3-2.9-2.9v-13.6c0-1.6 1.3-2.9 2.9-2.9h31.2c1.6 0 2.9 1.3 2.9 2.9l.1 13.6zM170.7 134c0 1.6-1.3 2.9-2.9 2.9h-31.2c-1.6 0-2.9-1.3-2.9-2.9v-13.6c0-1.6 1.3-2.9 2.9-2.9h31.2c1.6 0 2.9 1.3 2.9 2.9v13.6zM215.8 134c0 1.6-1.3 2.9-2.9 2.9h-31.2c-1.6 0-2.9-1.3-2.9-2.9v-13.6c0-1.6 1.3-2.9 2.9-2.9h31.2c1.6 0 2.9 1.3 2.9 2.9v13.6zM260.8 134c0 1.6-1.3 2.9-2.9 2.9h-31.2c-1.6 0-2.9-1.3-2.9-2.9v-13.6c0-1.6 1.3-2.9 2.9-2.9h31.2c1.6 0 2.9 1.3 2.9 2.9v13.6zM305.8 134c0 1.6-1.3 2.9-2.9 2.9h-31.2c-1.6 0-2.9-1.3-2.9-2.9v-13.6c0-1.6 1.3-2.9 2.9-2.9h31.2c1.6 0 2.9 1.3 2.9 2.9v13.6zM350.9 134c0 1.6-1.3 2.9-2.9 2.9h-31.2c-1.6 0-2.9-1.3-2.9-2.9v-13.6c0-1.6 1.3-2.9 2.9-2.9h31.2c1.6 0 2.9 1.3 2.9 2.9v13.6zM395.9 134c0 1.6-1.3 2.9-2.9 2.9h-31.2c-1.6 0-2.9-1.3-2.9-2.9v-13.6c0-1.6 1.3-2.9 2.9-2.9h31.2c1.6 0 2.9 1.3 2.9 2.9v13.6zM144.2 160.6c0 1.6-1.3 2.9-2.9 2.9h-31.2c-1.6 0-2.9-1.3-2.9-2.9v-13.6c0-1.6 1.3-2.9 2.9-2.9h31.2c1.6 0 2.9 1.3 2.9 2.9v13.6zM189.3 160.6c0 1.6-1.3 2.9-2.9 2.9h-31.2c-1.6 0-2.9-1.3-2.9-2.9v-13.6c0-1.6 1.3-2.9 2.9-2.9h31.2c1.6 0 2.9 1.3 2.9 2.9v13.6zM234.3 160.6c0 1.6-1.3 2.9-2.9 2.9h-31.2c-1.6 0-2.9-1.3-2.9-2.9v-13.6c0-1.6 1.3-2.9 2.9-2.9h31.2c1.6 0 2.9 1.3 2.9 2.9v13.6zM279.3 160.6c0 1.6-1.3 2.9-2.9 2.9h-31.2c-1.6 0-2.9-1.3-2.9-2.9v-13.6c0-1.6 1.3-2.9 2.9-2.9h31.2c1.6 0 2.9 1.3 2.9 2.9v13.6zM324.4 160.6c0 1.6-1.3 2.9-2.9 2.9h-31.2c-1.6 0-2.9-1.3-2.9-2.9v-13.6c0-1.6 1.3-2.9 2.9-2.9h31.2c1.6 0 2.9 1.3 2.9 2.9v13.6zM369.4 160.6c0 1.6-1.3 2.9-2.9 2.9h-31.2c-1.6 0-2.9-1.3-2.9-2.9v-13.6c0-1.6 1.3-2.9 2.9-2.9h31.2c1.6 0 2.9 1.3 2.9 2.9v13.6zM414.5 160.6c0 1.6-1.3 2.9-2.9 2.9h-31.2c-1.6 0-2.9-1.3-2.9-2.9v-13.6c0-1.6 1.3-2.9 2.9-2.9h31.2c1.6 0 2.9 1.3 2.9 2.9v13.6zM125.7 186.6c0 1.6-1.3 2.9-2.9 2.9h-31.3c-1.6 0-2.9-1.3-2.9-2.9v-13.6c0-1.6 1.3-2.9 2.9-2.9h31.2c1.6 0 2.9 1.3 2.9 2.9l.1 13.6zM170.7 186.6c0 1.6-1.3 2.9-2.9 2.9h-31.2c-1.6 0-2.9-1.3-2.9-2.9v-13.6c0-1.6 1.3-2.9 2.9-2.9h31.2c1.6 0 2.9 1.3 2.9 2.9v13.6zM215.8 186.6c0 1.6-1.3 2.9-2.9 2.9h-31.2c-1.6 0-2.9-1.3-2.9-2.9v-13.6c0-1.6 1.3-2.9 2.9-2.9h31.2c1.6 0 2.9 1.3 2.9 2.9v13.6zM260.8 186.6c0 1.6-1.3 2.9-2.9 2.9h-31.2c-1.6 0-2.9-1.3-2.9-2.9v-13.6c0-1.6 1.3-2.9 2.9-2.9h31.2c1.6 0 2.9 1.3 2.9 2.9v13.6zM305.8 186.6c0 1.6-1.3 2.9-2.9 2.9h-31.2c-1.6 0-2.9-1.3-2.9-2.9v-13.6c0-1.6 1.3-2.9 2.9-2.9h31.2c1.6 0 2.9 1.3 2.9 2.9v13.6zM350.9 186.6c0 1.6-1.3 2.9-2.9 2.9h-31.2c-1.6 0-2.9-1.3-2.9-2.9v-13.6c0-1.6 1.3-2.9 2.9-2.9h31.2c1.6 0 2.9 1.3 2.9 2.9v13.6zM395.9 186.6c0 1.6-1.3 2.9-2.9 2.9h-31.2c-1.6 0-2.9-1.3-2.9-2.9v-13.6c0-1.6 1.3-2.9 2.9-2.9h31.2c1.6 0 2.9 1.3 2.9 2.9v13.6zM144.2 56.4c0 1.6-1.3 2.9-2.9 2.9h-31.2c-1.6 0-2.9-1.3-2.9-2.9v-13.6c0-1.6 1.3-2.9 2.9-2.9h31.2c1.6 0 2.9 1.3 2.9 2.9v13.6zM189.3 56.4c0 1.6-1.3 2.9-2.9 2.9h-31.2c-1.6 0-2.9-1.3-2.9-2.9v-13.6c0-1.6 1.3-2.9 2.9-2.9h31.2c1.6 0 2.9 1.3 2.9 2.9v13.6zM234.3 56.4c0 1.6-1.3 2.9-2.9 2.9h-31.2c-1.6 0-2.9-1.3-2.9-2.9v-13.6c0-1.6 1.3-2.9 2.9-2.9h31.2c1.6 0 2.9 1.3 2.9 2.9v13.6zM279.3 56.4c0 1.6-1.3 2.9-2.9 2.9h-31.2c-1.6 0-2.9-1.3-2.9-2.9v-13.6c0-1.6 1.3-2.9 2.9-2.9h31.2c1.6 0 2.9 1.3 2.9 2.9v13.6zM324.4 56.4c0 1.6-1.3 2.9-2.9 2.9h-31.2c-1.6 0-2.9-1.3-2.9-2.9v-13.6c0-1.6 1.3-2.9 2.9-2.9h31.2c1.6 0 2.9 1.3 2.9 2.9v13.6zM369.4 56.4c0 1.6-1.3 2.9-2.9 2.9h-31.2c-1.6 0-2.9-1.3-2.9-2.9v-13.6c0-1.6 1.3-2.9 2.9-2.9h31.2c1.6 0 2.9 1.3 2.9 2.9v13.6zM414.5 56.4c0 1.6-1.3 2.9-2.9 2.9h-31.2c-1.6 0-2.9-1.3-2.9-2.9v-13.6c0-1.6 1.3-2.9 2.9-2.9h31.2c1.6 0 2.9 1.3 2.9 2.9v13.6zM125.7 82.4c0 1.6-1.3 2.9-2.9 2.9h-31.3c-1.6 0-2.9-1.3-2.9-2.9v-13.6c0-1.6 1.3-2.9 2.9-2.9h31.2c1.6 0 2.9 1.3 2.9 2.9l.1 13.6zM170.7 82.4c0 1.6-1.3 2.9-2.9 2.9h-31.2c-1.6 0-2.9-1.3-2.9-2.9v-13.6c0-1.6 1.3-2.9 2.9-2.9h31.2c1.6 0 2.9 1.3 2.9 2.9v13.6zM215.8 82.4c0 1.6-1.3 2.9-2.9 2.9h-31.2c-1.6 0-2.9-1.3-2.9-2.9v-13.6c0-1.6 1.3-2.9 2.9-2.9h31.2c1.6 0 2.9 1.3 2.9 2.9v13.6zM260.8 82.4c0 1.6-1.3 2.9-2.9 2.9h-31.2c-1.6 0-2.9-1.3-2.9-2.9v-13.6c0-1.6 1.3-2.9 2.9-2.9h31.2c1.6 0 2.9 1.3 2.9 2.9v13.6zM305.8 82.4c0 1.6-1.3 2.9-2.9 2.9h-31.2c-1.6 0-2.9-1.3-2.9-2.9v-13.6c0-1.6 1.3-2.9 2.9-2.9h31.2c1.6 0 2.9 1.3 2.9 2.9v13.6zM350.9 82.4c0 1.6-1.3 2.9-2.9 2.9h-31.2c-1.6 0-2.9-1.3-2.9-2.9v-13.6c0-1.6 1.3-2.9 2.9-2.9h31.2c1.6 0 2.9 1.3 2.9 2.9v13.6zM395.9 82.4c0 1.6-1.3 2.9-2.9 2.9h-31.2c-1.6 0-2.9-1.3-2.9-2.9v-13.6c0-1.6 1.3-2.9 2.9-2.9h31.2c1.6 0 2.9 1.3 2.9 2.9v13.6zM144.2 213.1c0 1.6-1.3 2.9-2.9 2.9h-31.2c-1.6 0-2.9-1.3-2.9-2.9v-13.6c0-1.6 1.3-2.9 2.9-2.9h31.2c1.6 0 2.9 1.3 2.9 2.9v13.6zM189.3 213.1c0 1.6-1.3 2.9-2.9 2.9h-31.2c-1.6 0-2.9-1.3-2.9-2.9v-13.6c0-1.6 1.3-2.9 2.9-2.9h31.2c1.6 0 2.9 1.3 2.9 2.9v13.6zM234.3 213.1c0 1.6-1.3 2.9-2.9 2.9h-31.2c-1.6 0-2.9-1.3-2.9-2.9v-13.6c0-1.6 1.3-2.9 2.9-2.9h31.2c1.6 0 2.9 1.3 2.9 2.9v13.6zM279.3 213.1c0 1.6-1.3 2.9-2.9 2.9h-31.2c-1.6 0-2.9-1.3-2.9-2.9v-13.6c0-1.6 1.3-2.9 2.9-2.9h31.2c1.6 0 2.9 1.3 2.9 2.9v13.6zM324.4 213.1c0 1.6-1.3 2.9-2.9 2.9h-31.2c-1.6 0-2.9-1.3-2.9-2.9v-13.6c0-1.6 1.3-2.9 2.9-2.9h31.2c1.6 0 2.9 1.3 2.9 2.9v13.6zM369.4 213.1c0 1.6-1.3 2.9-2.9 2.9h-31.2c-1.6 0-2.9-1.3-2.9-2.9v-13.6c0-1.6 1.3-2.9 2.9-2.9h31.2c1.6 0 2.9 1.3 2.9 2.9v13.6zM414.5 213.1c0 1.6-1.3 2.9-2.9 2.9h-31.2c-1.6 0-2.9-1.3-2.9-2.9v-13.6c0-1.6 1.3-2.9 2.9-2.9h31.2c1.6 0 2.9 1.3 2.9 2.9v13.6zM125.7 239.1c0 1.6-1.3 2.9-2.9 2.9h-31.3c-1.6 0-2.9-1.3-2.9-2.9v-13.6c0-1.6 1.3-2.9 2.9-2.9h31.2c1.6 0 2.9 1.3 2.9 2.9l.1 13.6zM170.7 239.1c0 1.6-1.3 2.9-2.9 2.9h-31.2c-1.6 0-2.9-1.3-2.9-2.9v-13.6c0-1.6 1.3-2.9 2.9-2.9h31.2c1.6 0 2.9 1.3 2.9 2.9v13.6zM215.8 239.1c0 1.6-1.3 2.9-2.9 2.9h-31.2c-1.6 0-2.9-1.3-2.9-2.9v-13.6c0-1.6 1.3-2.9 2.9-2.9h31.2c1.6 0 2.9 1.3 2.9 2.9v13.6zM260.8 239.1c0 1.6-1.3 2.9-2.9 2.9h-31.2c-1.6 0-2.9-1.3-2.9-2.9v-13.6c0-1.6 1.3-2.9 2.9-2.9h31.2c1.6 0 2.9 1.3 2.9 2.9v13.6zM305.8 239.1c0 1.6-1.3 2.9-2.9 2.9h-31.2c-1.6 0-2.9-1.3-2.9-2.9v-13.6c0-1.6 1.3-2.9 2.9-2.9h31.2c1.6 0 2.9 1.3 2.9 2.9v13.6zM350.9 239.1c0 1.6-1.3 2.9-2.9 2.9h-31.2c-1.6 0-2.9-1.3-2.9-2.9v-13.6c0-1.6 1.3-2.9 2.9-2.9h31.2c1.6 0 2.9 1.3 2.9 2.9v13.6zM395.9 239.1c0 1.6-1.3 2.9-2.9 2.9h-31.2c-1.6 0-2.9-1.3-2.9-2.9v-13.6c0-1.6 1.3-2.9 2.9-2.9h31.2c1.6 0 2.9 1.3 2.9 2.9v13.6zM144.2 317.1c0 1.6-1.3 2.9-2.9 2.9h-31.2c-1.6 0-2.9-1.3-2.9-2.9v-13.6c0-1.6 1.3-2.9 2.9-2.9h31.2c1.6 0 2.9 1.3 2.9 2.9v13.6zM189.3 317.1c0 1.6-1.3 2.9-2.9 2.9h-31.2c-1.6 0-2.9-1.3-2.9-2.9v-13.6c0-1.6 1.3-2.9 2.9-2.9h31.2c1.6 0 2.9 1.3 2.9 2.9v13.6zM234.3 317.1c0 1.6-1.3 2.9-2.9 2.9h-31.2c-1.6 0-2.9-1.3-2.9-2.9v-13.6c0-1.6 1.3-2.9 2.9-2.9h31.2c1.6 0 2.9 1.3 2.9 2.9v13.6zM279.3 317.1c0 1.6-1.3 2.9-2.9 2.9h-31.2c-1.6 0-2.9-1.3-2.9-2.9v-13.6c0-1.6 1.3-2.9 2.9-2.9h31.2c1.6 0 2.9 1.3 2.9 2.9v13.6zM324.4 317.1c0 1.6-1.3 2.9-2.9 2.9h-31.2c-1.6 0-2.9-1.3-2.9-2.9v-13.6c0-1.6 1.3-2.9 2.9-2.9h31.2c1.6 0 2.9 1.3 2.9 2.9v13.6zM369.4 317.1c0 1.6-1.3 2.9-2.9 2.9h-31.2c-1.6 0-2.9-1.3-2.9-2.9v-13.6c0-1.6 1.3-2.9 2.9-2.9h31.2c1.6 0 2.9 1.3 2.9 2.9v13.6zM414.5 317.1c0 1.6-1.3 2.9-2.9 2.9h-31.2c-1.6 0-2.9-1.3-2.9-2.9v-13.6c0-1.6 1.3-2.9 2.9-2.9h31.2c1.6 0 2.9 1.3 2.9 2.9v13.6zM125.7 343.1c0 1.6-1.3 2.9-2.9 2.9h-31.3c-1.6 0-2.9-1.3-2.9-2.9v-13.6c0-1.6 1.3-2.9 2.9-2.9h31.2c1.6 0 2.9 1.3 2.9 2.9l.1 13.6zM170.7 343.1c0 1.6-1.3 2.9-2.9 2.9h-31.2c-1.6 0-2.9-1.3-2.9-2.9v-13.6c0-1.6 1.3-2.9 2.9-2.9h31.2c1.6 0 2.9 1.3 2.9 2.9v13.6zM215.8 343.1c0 1.6-1.3 2.9-2.9 2.9h-31.2c-1.6 0-2.9-1.3-2.9-2.9v-13.6c0-1.6 1.3-2.9 2.9-2.9h31.2c1.6 0 2.9 1.3 2.9 2.9v13.6zM260.8 343.1c0 1.6-1.3 2.9-2.9 2.9h-31.2c-1.6 0-2.9-1.3-2.9-2.9v-13.6c0-1.6 1.3-2.9 2.9-2.9h31.2c1.6 0 2.9 1.3 2.9 2.9v13.6zM305.8 343.1c0 1.6-1.3 2.9-2.9 2.9h-31.2c-1.6 0-2.9-1.3-2.9-2.9v-13.6c0-1.6 1.3-2.9 2.9-2.9h31.2c1.6 0 2.9 1.3 2.9 2.9v13.6zM350.9 343.1c0 1.6-1.3 2.9-2.9 2.9h-31.2c-1.6 0-2.9-1.3-2.9-2.9v-13.6c0-1.6 1.3-2.9 2.9-2.9h31.2c1.6 0 2.9 1.3 2.9 2.9v13.6zM395.9 343.1c0 1.6-1.3 2.9-2.9 2.9h-31.2c-1.6 0-2.9-1.3-2.9-2.9v-13.6c0-1.6 1.3-2.9 2.9-2.9h31.2c1.6 0 2.9 1.3 2.9 2.9v13.6zM144.2 265.8c0 1.6-1.3 2.9-2.9 2.9h-31.2c-1.6 0-2.9-1.3-2.9-2.9v-13.6c0-1.6 1.3-2.9 2.9-2.9h31.2c1.6 0 2.9 1.3 2.9 2.9v13.6zM189.3 265.8c0 1.6-1.3 2.9-2.9 2.9h-31.2c-1.6 0-2.9-1.3-2.9-2.9v-13.6c0-1.6 1.3-2.9 2.9-2.9h31.2c1.6 0 2.9 1.3 2.9 2.9v13.6zM234.3 265.8c0 1.6-1.3 2.9-2.9 2.9h-31.2c-1.6 0-2.9-1.3-2.9-2.9v-13.6c0-1.6 1.3-2.9 2.9-2.9h31.2c1.6 0 2.9 1.3 2.9 2.9v13.6zM279.3 265.8c0 1.6-1.3 2.9-2.9 2.9h-31.2c-1.6 0-2.9-1.3-2.9-2.9v-13.6c0-1.6 1.3-2.9 2.9-2.9h31.2c1.6 0 2.9 1.3 2.9 2.9v13.6zM324.4 265.8c0 1.6-1.3 2.9-2.9 2.9h-31.2c-1.6 0-2.9-1.3-2.9-2.9v-13.6c0-1.6 1.3-2.9 2.9-2.9h31.2c1.6 0 2.9 1.3 2.9 2.9v13.6zM369.4 265.8c0 1.6-1.3 2.9-2.9 2.9h-31.2c-1.6 0-2.9-1.3-2.9-2.9v-13.6c0-1.6 1.3-2.9 2.9-2.9h31.2c1.6 0 2.9 1.3 2.9 2.9v13.6zM414.5 265.8c0 1.6-1.3 2.9-2.9 2.9h-31.2c-1.6 0-2.9-1.3-2.9-2.9v-13.6c0-1.6 1.3-2.9 2.9-2.9h31.2c1.6 0 2.9 1.3 2.9 2.9v13.6zM125.7 291.8c0 1.6-1.3 2.9-2.9 2.9h-31.3c-1.6 0-2.9-1.3-2.9-2.9v-13.6c0-1.6 1.3-2.9 2.9-2.9h31.2c1.6 0 2.9 1.3 2.9 2.9l.1 13.6zM170.7 291.8c0 1.6-1.3 2.9-2.9 2.9h-31.2c-1.6 0-2.9-1.3-2.9-2.9v-13.6c0-1.6 1.3-2.9 2.9-2.9h31.2c1.6 0 2.9 1.3 2.9 2.9v13.6zM215.8 291.8c0 1.6-1.3 2.9-2.9 2.9h-31.2c-1.6 0-2.9-1.3-2.9-2.9v-13.6c0-1.6 1.3-2.9 2.9-2.9h31.2c1.6 0 2.9 1.3 2.9 2.9v13.6zM260.8 291.8c0 1.6-1.3 2.9-2.9 2.9h-31.2c-1.6 0-2.9-1.3-2.9-2.9v-13.6c0-1.6 1.3-2.9 2.9-2.9h31.2c1.6 0 2.9 1.3 2.9 2.9v13.6zM305.8 291.8c0 1.6-1.3 2.9-2.9 2.9h-31.2c-1.6 0-2.9-1.3-2.9-2.9v-13.6c0-1.6 1.3-2.9 2.9-2.9h31.2c1.6 0 2.9 1.3 2.9 2.9v13.6zM350.9 291.8c0 1.6-1.3 2.9-2.9 2.9h-31.2c-1.6 0-2.9-1.3-2.9-2.9v-13.6c0-1.6 1.3-2.9 2.9-2.9h31.2c1.6 0 2.9 1.3 2.9 2.9v13.6zM395.9 291.8c0 1.6-1.3 2.9-2.9 2.9h-31.2c-1.6 0-2.9-1.3-2.9-2.9v-13.6c0-1.6 1.3-2.9 2.9-2.9h31.2c1.6 0 2.9 1.3 2.9 2.9v13.6z"/></g><path fill="#8D6E63" d="M197.6 442.5h17.8v1.6h-17.8z"/><path fill="#7E57C2" d="M223 462.1h17.8v1.6h-17.8z"/><path fill="#8D6E63" d="M256 451.5h17.8v1.6h-17.8z"/><path fill="#7E57C2" d="M422.6 442.5h8.9v1.6h-8.9zM271.5 439l45-.1v1.7h-45zM301.3 459.1h25.9v1.7h-25.9zM115.9 437.3h25.9v1.6h-25.9zM142.8 455.7h45.5v1.6h-45.5zM395.4 457.5h29.2v1.6h-29.2zM80.5 449.8h17.8v1.6h-17.8z"/><path fill="#FDD835" d="M218 441.6c.3 0 12.5 6.2 12.5 6.2l-33.4 4.8-9.8-10.7 30.7-.3z"/><path fill="#FFF176" d="M218.5 441c.3 0 12.5 6.2 12.5 6.2l-33.4 4.8-9.8-10.7 30.7-.3z"/><path fill="#fff" d="M220.9 447.1h-23.4l-4.1-34.1h31.7z"/><path fill="#E8F0FE" d="M219.7 445h-20.6l-4.2-32h29z"/><path fill="#F7CB4D" d="M197.9 436l1.2 9h20.6l1.2-9z"/><path fill="#FEF6E0" d="M203.5 444l-5.1-7.2 6.7-12.7 14.5 5.8-1.6 7.2-6.2 7.9z"/><path fill="#FFCCBC" d="M203.5 444l8.3 1 6.2-7.9-8.2 1.5-11.4-1.8z"/><path fill="#FFF9C4" d="M219.6 430l-16.1 14 8.3 1z"/><path fill="#FFE0B2" d="M205.1 424.1l6.7 20.9-8.3-1z"/><path opacity=".3" fill="#F57C00" enable-background="new" d="M198 436.9l1.1 8.1h20.6l1-8.1z"/><path opacity=".3" fill="#B2DFDB" enable-background="new" d="M197.7 447.1h23.4l4-34.1z"/><path opacity=".1" fill="#212121" enable-background="new" d="M235.5 458.2l-14.3-11.1h-23.7l13.9 16.1"/><linearGradient id="sports_1_" gradientUnits="userSpaceOnUse" x1="7566.176" y1="-14473.6" x2="8785.414" y2="-14473.6" gradientTransform="matrix(.031 0 0 -.031 0 .5)"><stop offset="0" stop-color="#fff" stop-opacity="0"/><stop offset="1" stop-color="#E1E1E1"/></linearGradient><ellipse fill="url(#sports_1_)" cx="255.5" cy="452.8" rx="19.1" ry="6.6"/><ellipse fill="#E1E1E1" cx="254.6" cy="451.9" rx="19.1" ry="6.6"/><ellipse fill="#00ACC1" cx="254.6" cy="451.9" rx="15.2" ry="5.2"/><path fill="#fff" d="M267.1 453h-24.5l-4.5-54.8h33.5z"/><path fill="#B2DFDB" d="M239.9 398.2l4.4 52.8h21.1l4.4-52.8z"/><path fill="#FFEE58" d="M240.2 400.9h29.3l-.3 4.5h-28.7z"/><path fill="#F6BF26" d="M244.3 451h21.1l3.8-45.6h-28.7z"/><circle fill="#FFF59D" cx="262.4" cy="407.2" r="2.7"/><circle fill="#FFF59D" cx="258.2" cy="412.7" r="1.3"/><circle fill="#FFF59D" cx="260.6" cy="419.4" r=".9"/><circle fill="#FFF59D" cx="249.7" cy="424.1" r="2.7"/><circle fill="#FFF59D" cx="253.7" cy="435.1" r="1.3"/><circle fill="#FFF59D" cx="246.7" cy="423.7" r=".9"/><path fill="#F5F5F5" d="M271.6 398.2c.3-.9.5-1.8.5-2.8 0-4.5-3.6-8.1-8.1-8.1-2.8 0-5.3 1.4-6.7 3.6-.7-.5-1.5-.8-2.4-.8-1.6 0-2.9.9-3.6 2.2-.5-.1-1.1-.2-1.6-.2-.4 0-.8 0-1.2.1-1.1-1.3-2.8-2.1-4.6-2.1-3.3 0-6.1 2.7-6.1 6.1 0 .7.1 1.4.3 2h33.5z"/><path fill="#E1E1E1" d="M239.9 398.2l.3 2.7h29.3l.3-2.7h-.1z"/><path opacity=".1" fill="#212121" enable-background="new" d="M242.6 453l13.4 11h42.5l-31.4-11z"/><path opacity=".4" fill="#FB8C00" enable-background="new" d="M244.4 450.6h21.1l2.3-29.5z"/><linearGradient id="sports_2_" gradientUnits="userSpaceOnUse" x1="2776.771" y1="-14294.4" x2="3996.013" y2="-14294.4" gradientTransform="matrix(.031 0 0 -.031 0 .5)"><stop offset="0" stop-color="#fff" stop-opacity="0"/><stop offset="1" stop-color="#E1E1E1"/></linearGradient><ellipse fill="url(#sports_2_)" cx="105.8" cy="447.2" rx="19.1" ry="6.6"/><ellipse fill="#E1E1E1" cx="104.9" cy="446.3" rx="19.1" ry="6.6"/><ellipse fill="#64DD17" cx="104.9" cy="446.3" rx="15.2" ry="5.2"/><path fill="#E0F7FA" d="M115.7 445.4l4.4-52.7h-29.8l4.4 52.7z"/><path fill="#FFEE58" d="M92.4 418.6h25.5l-.4 4.5h-24.7z"/><path fill="#F6BF26" d="M94.7 445.4h21l1.8-22.3h-24.7z"/><circle fill="#FFF59D" cx="106.8" cy="426.2" r=".9"/><circle fill="#FFF59D" cx="102.1" cy="430.3" r="2.2"/><circle fill="#FFF59D" cx="103.5" cy="432.6" r="1.3"/><circle fill="#FFF59D" cx="110.3" cy="439.8" r=".9"/><path fill="#E1E1E1" d="M92.3 416.8l.2 2.7h25.3l.3-2.7z"/><path opacity=".4" fill="#FB8C00" enable-background="new" d="M94 445.4h21.7l1.2-16.2z"/><path opacity=".1" fill="#212121" enable-background="new" d="M93 447.4l18.8 16.6 39.7.1-34.1-16.7z"/><path fill="#E1E1E1" d="M117.1 415.3c-.5 0-1 .2-1.4.5-.8-2-2.7-3.4-5-3.4-1.6 0-3.1.7-4.1 1.8-.2 0-.4-.1-.5-.1-.8 0-1.5.3-2.1.7-1.1-2.2-3.3-3.7-5.9-3.7-3.6 0-6.6 2.9-6.6 6.6h28c0-1.3-1.1-2.4-2.4-2.4z"/><path fill="#fff" d="M120.1 392.7l-4.4 52.7h-21l-4.4-52.7h-1.8l4.5 54.7h24.4l4.5-54.7z"/><circle fill="#E1E1E1" cx="114.5" cy="405.5" r="2.7"/><circle fill="#E1E1E1" cx="116.2" cy="403.4" r="1.3"/><path opacity=".1" fill="#212121" d="M364 246.4l54 7.9-43 15.8z"/><path fill="#81D4FA" d="M349.7 244.7l6.2 34.8 55.8-27.5z"/><circle fill="#0277BD" cx="366.4" cy="259.7" r="9.5"/><g fill="#4FC3F7"><path d="M341.7 259.5l.4 2.1 10.8 1-.3-1.8zM352.7 261.5l.4 2.1-9.9 4.7-.3-1.8z"/></g><linearGradient id="sports_3_" gradientUnits="userSpaceOnUse" x1="11623.817" y1="-8142.4" x2="11954.144" y2="-8142.4" gradientTransform="matrix(.031 0 0 -.031 0 .5)"><stop offset="0" stop-color="#fff" stop-opacity="0"/><stop offset="1" stop-color="#E1E1E1"/></linearGradient><path fill="url(#sports_3_)" d="M373.1 252.6l.5 2.7-10.4 2z"/><path opacity=".1" fill="#212121" d="M333.5 264.2l59.4 15.3-45.6 11.3z"/><path fill="#AEEA00" d="M325.6 261.8v35.3l59.8-17.3z"/><g fill="#EEFF41"><path d="M315.1 275v2.1l10.5 2.9v-1.9zM325.6 278.9v2.1l-10.5 2.9v-1.9z"/></g><path fill="#C6FF00" d="M327.4 279.6l25.5-7.8v15.6z"/><path fill="#37474F" d="M338.1 119.2v93.6h-198.5v-93.6h198.5m18.5-16.2h-235.4v126h235.3v-126h.1z"/><path opacity=".3" fill="#212121" enable-background="new" d="M356.6 103v126h-235.4l9-16.2h217.4v-99.9z"/><path fill="#80DEEA" d="M130.2 112.9h217.3v30.4h-217.3z"/><path fill="#FF7043" d="M130.2 139.7h217.3v14.9h-217.3z"/><path fill="#fff" d="M176.7 127.8v26.9h6.2v-6.1h5.9v6.6h1.5v-6.6h6.7v6.6h1.5v-6.6h6.7v6.6h1.5v-6.6h6.7v6.6h1.5v-6.6h6.7v6.6h1.5v-6.6h5.9v6.1h6.2v-26.9h-58.5zm52.8 6.1v5.1h-5.9v-5.1h5.9zm-7.5 0v5.1h-6.7v-5.1h6.7zm-8.3 0v5.1h-6.7v-5.1h6.7zm-8.3 0v5.1h-6.7v-5.1h6.7zm-8.3 0v5.1h-6.7v-5.1h6.7zm-8.3 0v5.1h-5.9v-5.1h5.9zm-5.9 13.1v-6.4h5.9v6.4h-5.9zm7.5 0v-6.4h6.7v6.4h-6.7zm8.3 0v-6.4h6.7v6.4h-6.7zm8.3 0v-6.4h6.7v6.4h-6.7zm8.3 0v-6.4h6.7v6.4h-6.7zm8.3 0v-6.4h5.9v6.4h-5.9z"/><path fill="#E83636" d="M133.8 116.5h23.9v5.7h-23.9z"/><path fill="#B2FF59" d="M130.2 154.6h217.3v58.2h-217.3z"/><g fill="#00E676"><path d="M130.2 154.6h24.7v58.2h-24.7zM185.5 154.6h24.7v58.2h-24.7zM240.8 154.6h24.7v58.2h-24.7zM296.1 154.6h24.7v58.2h-24.7z"/></g><defs><path id="sports_4_" d="M276.5 155.4h71.8v57.4h-71.8z"/></defs><clipPath id="sports_5_"><use xlink:href="#sports_4_" overflow="visible"/></clipPath><circle clip-path="url(#sports_5_)" fill="#FAFAFA" cx="311.7" cy="190.9" r="26.8"/><defs><path id="sports_6_" d="M276.5 155.4h71.8v57.4h-71.8z"/></defs><clipPath id="sports_7_"><use xlink:href="#sports_6_" overflow="visible"/></clipPath><g clip-path="url(#sports_7_)" fill="#424242"><path d="M305.9 183.8l-3.4 10.7 9.1 6.6 9.1-6.6-3.5-10.7zM311.4 209l-9.1 4.1 1.9 3.5c2.4.7 4.9 1.1 7.5 1.1 2.4 0 4.7-.3 6.9-.9l1.9-3.7-9.1-4.1zM294.1 195.9l-6.1-7.9-3.2 2.8v.1c0 5.1 1.4 9.8 3.9 13.9l3.6.9 1.8-9.8zM328.5 195.6l1.9 9.8 4.5-1.2c2.2-3.9 3.5-8.4 3.6-13.2l-3.9-3.4-6.1 8zM322.1 177.6l9.8 2.2.9-5.5c-2.7-3.4-6.2-6.2-10.3-7.9l-5.2 2.5 4.8 8.7zM300.4 177.3l4.8-8.8-4.5-2.2c-4.3 1.9-8 5-10.8 8.7l.7 4.4 9.8-2.1z"/></g><circle fill="#76FF03" cx="345.8" cy="221.2" r="1.8"/><path opacity=".2" fill="#FEFFFD" enable-background="new" d="M170 212.8h-39.8v-99.9h179.7z"/><path opacity=".3" fill="#212121" enable-background="new" d="M347.6 112.9v1.5h-215.8v98.4h-1.6v-99.9z"/><path opacity=".3" fill="#FEFFFD" enable-background="new" d="M131.8 212.8v-1.5l214.2.1v-97h1.6v98.4z"/><path fill="#4FC3F7" d="M321.7 130.3c-3.5 0-6.4 1.4-6.4 3.2v3.2h12.7v-3.2c.1-1.8-2.8-3.2-6.3-3.2z"/><linearGradient id="sports_8_" gradientUnits="userSpaceOnUse" x1="10305.06" y1="-4256" x2="10032.64" y2="-4256" gradientTransform="matrix(.031 0 0 -.031 0 .5)"><stop offset="0" stop-color="#fff" stop-opacity="0"/><stop offset="1" stop-color="#E1E1E1"/></linearGradient><path fill="url(#sports_8_)" d="M321.7 130.3c-3.5 0-6.4 1.4-6.4 3.2v3.2h12.7v-3.2c.1-1.8-2.8-3.2-6.3-3.2z"/><path fill="#8D6E63" d="M322.7 130.3v-.5h-2v.5l-.6.1 1.6 1.2 1.6-1.2z"/><path fill="#D7CCC8" d="M322.7 130.3v-.5h-2v.5l-.6.1 1.6 1.2 1.6-1.2z"/><circle fill="#8D6E63" cx="321.7" cy="127.2" r="3.1"/><defs><circle id="sports_9_" cx="321.7" cy="127.2" r="3.1"/></defs><clipPath id="sports_10_"><use xlink:href="#sports_9_" overflow="visible"/></clipPath><g clip-path="url(#sports_10_)" fill="#262626"><path d="M320 124.6s.5 1.2 4.5 1.2l.9-2.4-5.7-.4.3 1.6zM320.9 125s-1.7.7-2 .8c-.4 0-1.1-.9-1.1-.9l1-2 2.1 2.1z"/></g><path fill="#FF8A65" d="M337 130.3c-3.5 0-6.4 1.4-6.4 3.2v3.2h12.7v-3.2c.1-1.8-2.8-3.2-6.3-3.2z"/><linearGradient id="sports_11_" gradientUnits="userSpaceOnUse" x1="10795.696" y1="-4256" x2="10523.276" y2="-4256" gradientTransform="matrix(.031 0 0 -.031 0 .5)"><stop offset="0" stop-color="#fff" stop-opacity="0"/><stop offset="1" stop-color="#E1E1E1"/></linearGradient><path fill="url(#sports_11_)" d="M337 130.3c-3.5 0-6.4 1.4-6.4 3.2v3.2h12.7v-3.2c.1-1.8-2.8-3.2-6.3-3.2z"/><path fill="#FEF6E0" d="M338.1 130.3l-.1-.5h-1.9l-.1.5-.6.1 1.6 1.2 1.6-1.2zM338.1 130.3l-.1-.5h-1.9l-.1.5-.6.1 1.6 1.2 1.6-1.2z"/><circle fill="#FEF6E0" cx="337" cy="127.2" r="3.1"/><defs><circle id="sports_12_" cx="337" cy="127.2" r="3.1"/></defs><clipPath id="sports_13_"><use xlink:href="#sports_12_" overflow="visible"/></clipPath><g clip-path="url(#sports_13_)" fill="#FBC02D"><path d="M335.3 124.6s.5 1.2 4.5 1.2l.9-2.4-5.7-.4.3 1.6zM336.3 125s-1.7.7-2 .8c-.4 0-1.1-.9-1.1-.9l1-2 2.1 2.1z"/></g><path fill="#FBC02D" d="M306.4 130.3c-3.5 0-6.4 1.4-6.4 3.2v3.2h12.7v-3.2c0-1.8-2.8-3.2-6.3-3.2z"/><linearGradient id="sports_14_" gradientUnits="userSpaceOnUse" x1="9814.055" y1="-4256" x2="9541.639" y2="-4256" gradientTransform="matrix(.031 0 0 -.031 0 .5)"><stop offset="0" stop-color="#fff" stop-opacity="0"/><stop offset="1" stop-color="#E1E1E1"/></linearGradient><path fill="url(#sports_14_)" d="M306.4 130.3c-3.5 0-6.4 1.4-6.4 3.2v3.2h12.7v-3.2c0-1.8-2.8-3.2-6.3-3.2z"/><path fill="#D7CCC8" d="M307.4 130.3l-.1-.5h-1.9l-.1.5-.5.1 1.6 1.2 1.5-1.2z"/><path fill="#EFEBE9" d="M307.4 130.3l-.1-.5h-1.9l-.1.5-.5.1 1.6 1.2 1.5-1.2z"/><circle fill="#D7CCC8" cx="306.4" cy="127.2" r="3.1"/><defs><circle id="sports_15_" cx="306.4" cy="127.2" r="3.1"/></defs><clipPath id="sports_16_"><use xlink:href="#sports_15_" overflow="visible"/></clipPath><path clip-path="url(#sports_16_)" fill="#6D4C41" d="M304.7 124.6s.5 1.2 4.5 1.2l.9-2.4-5.7-.4.3 1.6z"/><defs><circle id="sports_17_" cx="306.4" cy="127.2" r="3.1"/></defs><clipPath id="sports_18_"><use xlink:href="#sports_17_" overflow="visible"/></clipPath><path clip-path="url(#sports_18_)" fill="#6D4C41" d="M305.6 125s-1.7.7-2 .8c-.4 0-1.1-.9-1.1-.9l1-2 2.1 2.1z"/><path fill="#0F9D58" d="M291 130.3c-3.5 0-6.4 1.4-6.4 3.2v3.2h12.7v-3.2c.1-1.8-2.8-3.2-6.3-3.2z"/><linearGradient id="sports_19_" gradientUnits="userSpaceOnUse" x1="9323.418" y1="-4256" x2="9051.002" y2="-4256" gradientTransform="matrix(.031 0 0 -.031 0 .5)"><stop offset="0" stop-color="#fff" stop-opacity="0"/><stop offset="1" stop-color="#E1E1E1"/></linearGradient><path fill="url(#sports_19_)" d="M291 130.3c-3.5 0-6.4 1.4-6.4 3.2v3.2h12.7v-3.2c.1-1.8-2.8-3.2-6.3-3.2z"/><path fill="#8D6E63" d="M292.1 130.3l-.1-.5h-1.9l-.1.5-.6.1 1.6 1.2 1.6-1.2z"/><path fill="#D7CCC8" d="M292.1 130.3l-.1-.5h-1.9l-.1.5-.6.1 1.6 1.2 1.6-1.2z"/><circle fill="#8D6E63" cx="291" cy="127.2" r="3.1"/><defs><circle id="sports_20_" cx="291" cy="127.2" r="3.1"/></defs><clipPath id="sports_21_"><use xlink:href="#sports_20_" overflow="visible"/></clipPath><g clip-path="url(#sports_21_)" fill="#262626"><path d="M289.3 124.6s.5 1.2 4.5 1.2l.9-2.4-5.7-.4.3 1.6zM290.2 125s-1.7.7-2 .8c-.4 0-1.1-.9-1.1-.9l1-2 2.1 2.1z"/></g><path fill="#FBC02D" d="M245 130.3c-3.5 0-6.4 1.4-6.4 3.2v3.2h12.7v-3.2c.1-1.8-2.8-3.2-6.3-3.2z"/><linearGradient id="sports_22_" gradientUnits="userSpaceOnUse" x1="7851.165" y1="-4256" x2="7578.746" y2="-4256" gradientTransform="matrix(.031 0 0 -.031 0 .5)"><stop offset="0" stop-color="#fff" stop-opacity="0"/><stop offset="1" stop-color="#E1E1E1"/></linearGradient><path fill="url(#sports_22_)" d="M245 130.3c-3.5 0-6.4 1.4-6.4 3.2v3.2h12.7v-3.2c.1-1.8-2.8-3.2-6.3-3.2z"/><path fill="#8D6E63" d="M246 130.3v-.5h-2v.5l-.6.1 1.6 1.2 1.6-1.2z"/><path fill="#D7CCC8" d="M246 130.3v-.5h-2v.5l-.6.1 1.6 1.2 1.6-1.2z"/><circle fill="#8D6E63" cx="245" cy="127.2" r="3.1"/><defs><circle id="sports_23_" cx="245" cy="127.2" r="3.1"/></defs><clipPath id="sports_24_"><use xlink:href="#sports_23_" overflow="visible"/></clipPath><g clip-path="url(#sports_24_)" fill="#262626"><path d="M243.3 124.6s.5 1.2 4.5 1.2l.9-2.4-5.7-.4.3 1.6zM244.2 125s-1.7.7-2 .8c-.4 0-1.1-.9-1.1-.9l1-2 2.1 2.1z"/></g><path fill="#4FC3F7" d="M260.3 130.3c-3.5 0-6.4 1.4-6.4 3.2v3.2h12.7v-3.2c.1-1.8-2.7-3.2-6.3-3.2z"/><linearGradient id="sports_25_" gradientUnits="userSpaceOnUse" x1="8341.805" y1="-4256" x2="8069.386" y2="-4256" gradientTransform="matrix(.031 0 0 -.031 0 .5)"><stop offset="0" stop-color="#fff" stop-opacity="0"/><stop offset="1" stop-color="#E1E1E1"/></linearGradient><path fill="url(#sports_25_)" d="M260.3 130.3c-3.5 0-6.4 1.4-6.4 3.2v3.2h12.7v-3.2c.1-1.8-2.7-3.2-6.3-3.2z"/><path fill="#FEF6E0" d="M261.4 130.3l-.1-.5h-1.9l-.1.5-.6.1 1.6 1.2 1.6-1.2zM261.4 130.3l-.1-.5h-1.9l-.1.5-.6.1 1.6 1.2 1.6-1.2z"/><circle fill="#FEF6E0" cx="260.4" cy="127.2" r="3.1"/><defs><circle id="sports_26_" cx="260.4" cy="127.2" r="3.1"/></defs><clipPath id="sports_27_"><use xlink:href="#sports_26_" overflow="visible"/></clipPath><g clip-path="url(#sports_27_)" fill="#FBC02D"><path d="M258.7 124.6s.5 1.2 4.5 1.2l.9-2.4-5.7-.4.3 1.6zM259.6 125s-1.7.7-2 .8c-.4 0-1.1-.9-1.1-.9l1-2 2.1 2.1z"/></g><path fill="#FF8A65" d="M275.7 130.3c-3.5 0-6.4 1.4-6.4 3.2v3.2h12.7v-3.2c0-1.8-2.8-3.2-6.3-3.2z"/><linearGradient id="sports_28_" gradientUnits="userSpaceOnUse" x1="8832.777" y1="-4256" x2="8560.361" y2="-4256" gradientTransform="matrix(.031 0 0 -.031 0 .5)"><stop offset="0" stop-color="#fff" stop-opacity="0"/><stop offset="1" stop-color="#E1E1E1"/></linearGradient><path fill="url(#sports_28_)" d="M275.7 130.3c-3.5 0-6.4 1.4-6.4 3.2v3.2h12.7v-3.2c.1-1.8-2.8-3.2-6.3-3.2z"/><path fill="#D7CCC8" d="M276.7 130.3l-.1-.5h-1.9l-.1.5-.5.1 1.6 1.2 1.6-1.2z"/><path fill="#EFEBE9" d="M276.7 130.3l-.1-.5h-1.9l-.1.5-.5.1 1.6 1.2 1.6-1.2z"/><circle fill="#D7CCC8" cx="275.7" cy="127.2" r="3.1"/><defs><circle id="sports_29_" cx="275.7" cy="127.2" r="3.1"/></defs><clipPath id="sports_30_"><use xlink:href="#sports_29_" overflow="visible"/></clipPath><path clip-path="url(#sports_30_)" fill="#6D4C41" d="M274 124.6s.5 1.2 4.5 1.2l.9-2.4-5.7-.4.3 1.6z"/><defs><circle id="sports_31_" cx="275.7" cy="127.2" r="3.1"/></defs><clipPath id="sports_32_"><use xlink:href="#sports_31_" overflow="visible"/></clipPath><path clip-path="url(#sports_32_)" fill="#6D4C41" d="M274.9 125s-1.7.7-2 .8c-.4 0-1.1-.9-1.1-.9l1-2 2.1 2.1z"/><path fill="#FF8A65" d="M151.5 130.3c-3.5 0-6.4 1.4-6.4 3.2v3.2h12.7v-3.2c.1-1.8-2.7-3.2-6.3-3.2z"/><linearGradient id="sports_33_" gradientUnits="userSpaceOnUse" x1="4860.451" y1="-4256" x2="4588.035" y2="-4256" gradientTransform="matrix(.031 0 0 -.031 0 .5)"><stop offset="0" stop-color="#fff" stop-opacity="0"/><stop offset="1" stop-color="#E1E1E1"/></linearGradient><path fill="url(#sports_33_)" d="M151.5 130.3c-3.5 0-6.4 1.4-6.4 3.2v3.2h12.7v-3.2c.1-1.8-2.7-3.2-6.3-3.2z"/><path fill="#8D6E63" d="M152.6 130.3l-.1-.5h-1.9l-.1.5-.6.1 1.6 1.2 1.6-1.2z"/><path fill="#D7CCC8" d="M152.6 130.3l-.1-.5h-1.9l-.1.5-.6.1 1.6 1.2 1.6-1.2z"/><circle fill="#8D6E63" cx="151.5" cy="127.2" r="3.1"/><defs><circle id="sports_34_" cx="151.5" cy="127.2" r="3.1"/></defs><clipPath id="sports_35_"><use xlink:href="#sports_34_" overflow="visible"/></clipPath><g clip-path="url(#sports_35_)" fill="#262626"><path d="M149.8 124.6s.5 1.2 4.5 1.2l.9-2.4-5.7-.4.3 1.6zM150.8 125s-1.7.7-2 .8c-.4 0-1.1-.9-1.1-.9l1-2 2.1 2.1z"/></g><path fill="#0F9D58" d="M166.9 130.3c-3.5 0-6.4 1.4-6.4 3.2v3.2h12.7v-3.2c0-1.8-2.8-3.2-6.3-3.2z"/><linearGradient id="sports_36_" gradientUnits="userSpaceOnUse" x1="5351.315" y1="-4256" x2="5078.899" y2="-4256" gradientTransform="matrix(.031 0 0 -.031 0 .5)"><stop offset="0" stop-color="#fff" stop-opacity="0"/><stop offset="1" stop-color="#E1E1E1"/></linearGradient><path fill="url(#sports_36_)" d="M166.9 130.3c-3.5 0-6.4 1.4-6.4 3.2v3.2h12.7v-3.2c.1-1.8-2.8-3.2-6.3-3.2z"/><path fill="#D7CCC8" d="M167.9 130.3v-.5h-2v.5l-.6.1 1.6 1.2 1.6-1.2z"/><path fill="#EFEBE9" d="M167.9 130.3v-.5h-2v.5l-.6.1 1.6 1.2 1.6-1.2z"/><circle fill="#D7CCC8" cx="166.9" cy="127.2" r="3.1"/><defs><circle id="sports_37_" cx="166.9" cy="127.2" r="3.1"/></defs><clipPath id="sports_38_"><use xlink:href="#sports_37_" overflow="visible"/></clipPath><path clip-path="url(#sports_38_)" fill="#6D4C41" d="M165.2 124.6s.5 1.2 4.5 1.2l.9-2.4-5.7-.4.3 1.6z"/><defs><circle id="sports_39_" cx="166.9" cy="127.2" r="3.1"/></defs><clipPath id="sports_40_"><use xlink:href="#sports_39_" overflow="visible"/></clipPath><path clip-path="url(#sports_40_)" fill="#6D4C41" d="M166.1 125s-1.7.7-2 .8c-.4 0-1.1-.9-1.1-.9l1-2 2.1 2.1z"/><path fill="#212121" d="M328.7 219.2h11.4v3.7h-11.4zM199.1 215.5h79.5v10.8h-79.5z"/><path fill="none" d="M0 0h512v512h-512z"/><path fill="#212121" fill-opacity=".2" d="M121.2 229l17.6 17.5h236.3v-126.8l-18.5-16.7v126z"/></g>
</svg>
