<?xml version="1.0" encoding="utf-8"?>
<!DOCTYPE svg PUBLIC "-//W3C//DTD SVG 1.1//EN" "http://www.w3.org/Graphics/SVG/1.1/DTD/svg11.dtd">
<svg version="1.1" id="Layer_1" xmlns="http://www.w3.org/2000/svg" xmlns:xlink="http://www.w3.org/1999/xlink" x="0px" y="0px" viewBox="0 0 512 512" enable-background="new 315 0 512 512" xml:space="preserve">
<g id="food">
<path fill="#E1E1E1" d="M257.9 345.7v-75.5h-6.3v75.5c0 19-13.9 26.8-32.8 26.8h71.9c-18.9 0-32.8-7.9-32.8-26.8z"/>
<path opacity=".2" fill="#212121" enable-background="new" d="M257.9 345.7v-75.5h-6.3v75.5c0 19-13.9 26.8-32.8 26.8h71.9c-18.9 0-32.8-7.9-32.8-26.8z"/>
<path fill="#E1E1E1" d="M218.9 372.4h71.9v5.5h-71.9z"/>
<path fill="#FEF6E0" d="M189.9 233.8v60c20.7 0 20.7 6 41.5 6 20.7 0 20.7-6 41.5-6 20.7 0 20.7 6 41.5 6v-66h-124.5z"/>
<path opacity=".1" fill="#212121" enable-background="new" d="M218.2 233.8l37.7 39.1 38-39.1h-78.2"/>
<path opacity=".8" fill="#fff" enable-background="new" d="M215.2 233.8l37.7 39.1 38-39.1h-78.2"/>
<path fill="#A1887F" d="M415.3 280.4c0 1.4-1.1 2.5-2.5 2.5h-72.2c-1.4 0-2.5-1.1-2.5-2.5s1.1-2.5 2.5-2.5h72.2c1.4 0 2.5 1.1 2.5 2.5zM338.2 273.5h77.1v6.9h-77.1zM340.7 282.9l3.9 95.1h5l1.5-95.1zM411.2 282.9l16.4 95.1h-4.9l-22-95.1z"/>
<path stroke="#A1887F" stroke-width="5" stroke-miterlimit="10" d="M405.8 274.7c-5-40.9 10-51.7 16.7-80.3" fill="none"/>
<path fill="#A1887F" d="M96.7 280.4c0 1.4 1.1 2.5 2.5 2.5h72.2c1.4 0 2.5-1.1 2.5-2.5s-1.1-2.5-2.5-2.5h-72.2c-1.4 0-2.5 1.1-2.5 2.5zM96.7 273.5h77.1v6.9h-77.1zM171.3 282.9l-3.9 95.1h-5l-1.5-95.1zM100.8 282.9l-16.4 95.1h4.9l22-95.1z"/>
<path stroke="#A1887F" stroke-width="5" stroke-miterlimit="10" d="M106.2 274.7c5-40.9-8.2-51.7-14.9-80.3" fill="none"/>
<path fill="#00796B" d="M251.3 172.7c-3.6-4.7-4.8-9.1-5.1-12.2v-10.6h-9.8v12.3c-.4 3.2-1.7 7.1-5.1 10.5-.3.3-.6.6-1 .9-.1 0-.1.1-.1.1-2.5 2.7-4.1 6.3-4.1 10.3v49.7h30.3v-49.7c.1-4.4-1.9-8.5-5.1-11.3z"/>
<path fill="#F8BBD0" d="M239.4 186.3h17.1v33.7h-17.1z"/>
<path fill="#F06292" d="M239.6 191.2h16.9v4.9h-16.9zM239.6 200.8h16.9v4.9h-16.9zM239.6 210.4h16.9v4.9h-16.9zM239.6 220h16.9v4.9h-16.9z"/>
<path opacity=".5" stroke="#F2F2F2" stroke-miterlimit="10" enable-background="new" d="M242.2 153.9s-.1 4.6 0 8.3c.1 3.8 2 10.6 6.3 14.4 5.5 4.8 3.7 19.2 3.7 19.2" fill="none"/>
<path fill="#FCEE21" d="M236.5 134.8h9.8v15.1h-9.8z"/>
<path opacity=".1" fill="#212121" enable-background="new" d="M241 134.8h5.2v15.1h-5.2z"/>
<circle fill="#F2F2F2" cx="259.5" cy="200.8" r="1.3"/>
<path opacity=".1" fill="#212121" enable-background="new" d="M246.2 149.9v10.6c.3 3.1 1.5 7.5 5.1 12.2 3.2 2.8 5.2 6.8 5.2 11.4v49.7h-16v-83.9h5.7z"/>
<path fill="#1DE9B6" d="M262.4 219.1v-15.1h-5.7v15.1c-3.8 2-6.6 7.9-6.6 14.9h18.9c0-7-2.8-12.9-6.6-14.9z"/>
<path opacity=".2" fill="#212121" enable-background="new" d="M160.9 282.9h10.4l-.6 14.1zM102.1 282.9h9.2l-3.4 14.3zM400.9 282.9h10.2l2.4 14.1zM342.2 282.9h8.9l-.3 14.3z"/>
<path fill="#33691E" d="M279.9 199c-3.5-2.7-8.2-3.5-12.6-1.7s-7.2 5.7-7.8 10.1c3.5 2.7 8.3 3.5 12.6 1.7 4.4-1.8 7.2-5.7 7.8-10.1z"/>
<path fill="#FF9E80" d="M271.1 196.7c4.5 3.4 3.1 6.5-2.3 5.6.9 5.4-2.2 6.8-5.6 2.3-3.4 4.5-6.5 3.1-5.6-2.3-5.4.9-6.8-2.2-2.3-5.6-4.5-3.4-3.1-6.5 2.3-5.6-.9-5.4 2.2-6.8 5.6-2.3 3.4-4.5 6.5-3.1 5.6 2.3 5.4-.9 6.7 2.2 2.3 5.6z"/>
<path opacity=".2" fill="#F57C00" enable-background="new" d="M271.1 196.7c4.5 3.4 3.1 6.5-2.3 5.6.9 5.4-2.2 6.8-5.6 2.3-3.4 4.5-6.5 3.1-5.6-2.3-5.4.9-6.8-2.2-2.3-5.6-4.5-3.4-3.1-6.5 2.3-5.6-.9-5.4 2.2-6.8 5.6-2.3 3.4-4.5 6.5-3.1 5.6 2.3 5.4-.9 6.7 2.2 2.3 5.6z"/>
<path fill="#FF6D00" d="M260 206.8c3.5 4.2.1 7.7-4.1 4.1-4.2 3.5-7.7.1-4.1-4.1-3.5-4.2-.1-7.7 4.1-4.1 4.2-3.6 7.6-.2 4.1 4.1z"/>
<circle fill="#F2F2F2" cx="263.8" cy="195.3" r="1.1"/>
<circle fill="#F2F2F2" cx="260.8" cy="198.4" r=".7"/>
<path fill="#F2F2F2" d="M264.9 199.1c0 .3-.3.6-.6.6s-.6-.2-.6-.6c0-.3.3-.6.6-.6.4.1.6.3.6.6z"/>
<path fill="#00E5FF" d="M287.8 188.2l-2.6 15.8c0 5.5 4.2 10 9.6 10.5v13.7l.7-1.2-12.2 6.9h24.6l-11.9-6.9.7 1.2v-13.8c5.4-.5 9.6-5 9.6-10.5l-2.6-15.7h-15.9zM206.7 188.2h-7.9l-2.6 15.8c0 5.5 4.2 10 9.6 10.5v13.6l.7-1-12.2 6.9h24.6l-11.9-6.9.7 1v-13.6c5.4-.5 9.6-5 9.6-10.5l-2.6-15.8h-8"/>
<path fill="none" d="M244.9 256h5.5v5.5h-5.5zM239.4 250.5h5.5v5.5h-5.5zM244.9 245h5.5v5.5h-5.5zM233.9 245h5.5v5.5h-5.5zM250.4 250.5h5.5v5.5h-5.5zM255.9 245h5.5v5.5h-5.5zM266.9 245h5.5v5.5h-5.5zM239.4 239.5h5.5v5.5h-5.5zM250.4 239.5h5.5v5.5h-5.5zM228.4 239.5h5.5v5.5h-5.5zM272.4 239.5h5.5v5.5h-5.5zM261.4 239.5h5.5v5.5h-5.5zM261.4 250.5h5.5v5.5h-5.5zM250.4 261.4h5.5v5.5h-5.5zM255.9 256h5.5v5.5h-5.5z"/>
<path fill="#4DD0E1" d="M222.9 239.5v-5.5h-5.5v1.9l3.5 3.6zM228.4 234h5.5v5.5h-5.5zM239.4 234h5.5v5.5h-5.5zM250.4 234h5.5v5.5h-5.5zM261.4 234h5.5v5.5h-5.5zM272.4 234h5.5v5.5h-5.5zM288.8 236.2v-2.2h-5.5v5.5h2.3zM226.2 245h2.2v-5.5h-5.5v2.1zM233.9 239.5h5.5v5.5h-5.5zM244.9 239.5h5.5v5.5h-5.5zM255.9 239.5h5.5v5.5h-5.5zM266.9 239.5h5.5v5.5h-5.5zM280.3 245l3-3.2v-2.3h-5.5v5.5zM228.4 245v2.3l3.1 3.2h2.4v-5.5zM239.4 245h5.5v5.5h-5.5zM250.4 245h5.5v5.5h-5.5zM261.4 245h5.5v5.5h-5.5zM272.4 250.5h2.5l2.9-3v-2.5h-5.4zM233.9 250.5v2.5l2.9 3h2.6v-5.5zM244.9 250.5h5.5v5.5h-5.5zM255.9 250.5h5.5v5.5h-5.5zM266.9 256h2.7l2.8-2.9v-2.6h-5.5zM239.4 256v2.6l2.7 2.8h2.8v-5.4zM250.4 256h5.5v5.5h-5.5zM261.4 261.4h2.9l2.6-2.6v-2.8h-5.5zM244.9 261.4v2.9l2.5 2.6h3v-5.5zM255.9 266.9h3l2.5-2.5v-3h-5.5zM250.4 270l2.3 2.4h.9l2.3-2.3v-3.2h-5.5z"/>
<path opacity=".5" fill="#FAFAFA" enable-background="new" d="M211 203.2h-4.9l-7.4-15h4.9zM301.7 203.2h-4.9l-7.4-15h4.9z"/>
<path opacity=".1" fill="#212121" enable-background="new" d="M210 296.6l2.1-31.1 7.6 33.2s-3.6-.3-9.7-2.1zM280.1 293.5l2.1-31.1 7.6 33.2c.1 0-3.6-.3-9.7-2.1z"/>
<path fill="#fff" d="M304 230.3h-50l4.3 3.6h42.3z"/>
<path fill="none" d="M0 0h512v512h-512z"/>
</g>
</svg>
